<svg xmlns="http://www.w3.org/2000/svg" xmlns:xlink="http://www.w3.org/1999/xlink" version="1.2" width="210.00mm" height="297.00mm" viewBox="0.0000 -0.0000 119.5016 169.0094">
<style type="text/css">
<![CDATA[
tspan { white-space: pre; }
]]>
</style>
<g transform="translate(52.1539, 6.2056)">
<text font-family="serif" font-weight="bold" font-size="3.4927" text-anchor="start" fill="currentColor">
<tspan>Psalm 134</tspan>
</text>
</g>
<g transform="translate(45.7862, 9.7056)">
<text font-family="serif" font-weight="bold" font-size="2.4696" text-anchor="start" fill="currentColor">
<tspan>vierstemmig (tenor)zetting</tspan>
</text>
</g>
<g transform="translate(98.1392, 13.2056)">
<text font-family="serif" font-size="2.2001" text-anchor="start" fill="currentColor">
<tspan>zett. C. Goudimel</tspan>
</text>
</g>
<g transform="translate(11.8250, 20.6316)">
<line stroke-linejoin="round" stroke-linecap="round" stroke-width="0.1000" stroke="currentColor" x1="0.0500" y1="0" x2="94.3929" y2="0"/>
</g>
<g transform="translate(11.8250, 19.6316)">
<line stroke-linejoin="round" stroke-linecap="round" stroke-width="0.1000" stroke="currentColor" x1="0.0500" y1="0" x2="94.3929" y2="0"/>
</g>
<g transform="translate(11.8250, 18.6316)">
<line stroke-linejoin="round" stroke-linecap="round" stroke-width="0.1000" stroke="currentColor" x1="0.0500" y1="0" x2="94.3929" y2="0"/>
</g>
<g transform="translate(11.8250, 17.6316)">
<line stroke-linejoin="round" stroke-linecap="round" stroke-width="0.1000" stroke="currentColor" x1="0.0500" y1="0" x2="94.3929" y2="0"/>
</g>
<g transform="translate(11.8250, 16.6316)">
<line stroke-linejoin="round" stroke-linecap="round" stroke-width="0.1000" stroke="currentColor" x1="0.0500" y1="0" x2="94.3929" y2="0"/>
</g>
<g transform="translate(106.0779, 18.6316)">
<rect x="0.0000" y="-2.0000" width="0.1900" height="4.0000" ry="0.0000" fill="currentColor"/>
</g>
<g transform="translate(105.5879, 18.6316)">
<rect x="0.0000" y="-2.0000" width="0.1900" height="4.0000" ry="0.0000" fill="currentColor"/>
</g>
<g transform="translate(106.0779, 33.0879)">
<rect x="0.0000" y="-2.0000" width="0.1900" height="4.0000" ry="0.0000" fill="currentColor"/>
</g>
<g transform="translate(105.5879, 33.0879)">
<rect x="0.0000" y="-2.0000" width="0.1900" height="4.0000" ry="0.0000" fill="currentColor"/>
</g>
<g transform="translate(114.0649, 33.0879)">
<rect x="0.0000" y="-2.0000" width="0.1900" height="4.0000" ry="0.0000" fill="currentColor"/>
</g>
<g transform="translate(6.1344, 30.0879)">
<rect x="82.1932" y="-0.1000" width="2.0660" height="0.2000" ry="0.1000" fill="currentColor"/>
</g>
<g transform="translate(11.8250, 35.0879)">
<line stroke-linejoin="round" stroke-linecap="round" stroke-width="0.1000" stroke="currentColor" x1="0.0500" y1="0" x2="102.3799" y2="0"/>
</g>
<g transform="translate(11.8250, 34.0879)">
<line stroke-linejoin="round" stroke-linecap="round" stroke-width="0.1000" stroke="currentColor" x1="0.0500" y1="0" x2="102.3799" y2="0"/>
</g>
<g transform="translate(11.8250, 33.0879)">
<line stroke-linejoin="round" stroke-linecap="round" stroke-width="0.1000" stroke="currentColor" x1="0.0500" y1="0" x2="102.3799" y2="0"/>
</g>
<g transform="translate(11.8250, 32.0879)">
<line stroke-linejoin="round" stroke-linecap="round" stroke-width="0.1000" stroke="currentColor" x1="0.0500" y1="0" x2="102.3799" y2="0"/>
</g>
<g transform="translate(11.8250, 31.0879)">
<line stroke-linejoin="round" stroke-linecap="round" stroke-width="0.1000" stroke="currentColor" x1="0.0500" y1="0" x2="102.3799" y2="0"/>
</g>
<g transform="translate(6.1344, 21.6316)">
<rect x="77.5301" y="-0.1000" width="1.9563" height="0.2000" ry="0.1000" fill="currentColor"/>
</g>
<g transform="translate(6.1344, 21.6316)">
<rect x="71.9244" y="-0.1000" width="1.9563" height="0.2000" ry="0.1000" fill="currentColor"/>
</g>
<g transform="translate(6.1344, 21.6316)">
<rect x="34.0688" y="-0.1000" width="2.0660" height="0.2000" ry="0.1000" fill="currentColor"/>
</g>
<g transform="translate(6.1344, 21.6316)">
<rect x="29.8667" y="-0.1000" width="1.9563" height="0.2000" ry="0.1000" fill="currentColor"/>
</g>
<g transform="translate(6.1344, 21.6316)">
<rect x="26.4804" y="-0.1000" width="1.9563" height="0.2000" ry="0.1000" fill="currentColor"/>
</g>
<a style="color:inherit;" xlink:href="textedit://C:/Users/dtsch/Hobby/harmoniously/01-enge-ligging/Psalm-134-TS%204st.ly:21:19:20">
<g transform="translate(78.3849, 20.6316)">
<path transform="scale(0.0040, -0.0040)" d="M218 136c55 0 108 -28 108 -89c0 -71 -55 -121 -102 -149c-35 -21 -75 -34 -116 -34c-55 0 -108 28 -108 89c0 71 55 121 102 149c35 21 75 34 116 34z" fill="currentColor"/>
</g>
</a>
<a style="color:inherit;" xlink:href="textedit://C:/Users/dtsch/Hobby/harmoniously/01-enge-ligging/Psalm-134-TS%204st.ly:21:20:21">
<g transform="translate(78.6444, 16.0816)">
<path transform="scale(0.0022, -0.0022)" d="M64 500c42 -7 84 -14 127 -14s85 7 127 14c2 0 5 1 7 1c17 0 28 -12 28 -22c0 -4 -1 -6 -4 -9c-61 -61 -145 -91 -231 -91c-17 0 -30 -14 -30 -31v-41c25 25 62 25 97 25h5c115 0 181 -55 181 -166c0 -99 -96 -166 -202 -166c-88 0 -169 52 -169 133c0 32 26 58 58 58
s58 -26 58 -58c0 -22 -36 -26 -36 -48c0 -36 47 -42 89 -42c52 0 73 63 73 123c0 53 -6 112 -52 112c-41 0 -84 -1 -107 -33c-6 -8 -14 -11 -22 -11c-14 0 -27 10 -27 27v209c0 17 11 30 26 30h4z" fill="currentColor"/>
</g>
</a>
<a style="color:inherit;" xlink:href="textedit://C:/Users/dtsch/Hobby/harmoniously/01-enge-ligging/Psalm-134-TS%204st.ly:34:9:10">
<g transform="translate(78.3849, 21.6316)">
<path transform="scale(0.0040, -0.0040)" d="M218 136c55 0 108 -28 108 -89c0 -71 -55 -121 -102 -149c-35 -21 -75 -34 -116 -34c-55 0 -108 28 -108 89c0 71 55 121 102 149c35 21 75 34 116 34z" fill="currentColor"/>
</g>
</a>
<g transform="translate(73.4930, 33.0879)">
<rect x="-0.0650" y="2.1861" width="0.1300" height="2.4806" ry="0.0400" fill="currentColor"/>
</g>
<a style="color:inherit;" xlink:href="textedit://C:/Users/dtsch/Hobby/harmoniously/01-enge-ligging/Psalm-134-TS%204st.ly:39:19:20">
<g transform="translate(78.3849, 31.0879)">
<path transform="scale(0.0040, -0.0040)" d="M218 136c55 0 108 -28 108 -89c0 -71 -55 -121 -102 -149c-35 -21 -75 -34 -116 -34c-55 0 -108 28 -108 89c0 71 55 121 102 149c35 21 75 34 116 34z" fill="currentColor"/>
</g>
</a>
<a style="color:inherit;" xlink:href="textedit://C:/Users/dtsch/Hobby/harmoniously/01-enge-ligging/Psalm-134-TS%204st.ly:39:21:22">
<g transform="translate(78.3849, 27.9613)">
<text font-family="serif" font-size="2.2001" text-anchor="start" fill="currentColor">
<tspan>Am</tspan>
</text>
</g>
</a>
<a style="color:inherit;" xlink:href="textedit://C:/Users/dtsch/Hobby/harmoniously/01-enge-ligging/Psalm-134-TS%204st.ly:48:9:10">
<g transform="translate(78.3849, 34.5879)">
<path transform="scale(0.0040, -0.0040)" d="M218 136c55 0 108 -28 108 -89c0 -71 -55 -121 -102 -149c-35 -21 -75 -34 -116 -34c-55 0 -108 28 -108 89c0 71 55 121 102 149c35 21 75 34 116 34z" fill="currentColor"/>
</g>
</a>
<a style="color:inherit;" xlink:href="textedit://C:/Users/dtsch/Hobby/harmoniously/01-enge-ligging/Psalm-134-TS%204st.ly:28:15:16">
<g transform="translate(75.6910, 39.8897)">
<text font-family="serif" font-size="2.4696" text-anchor="start" fill="currentColor">
<tspan>knech-</tspan>
</text>
</g>
</a>
<g transform="translate(79.6241, 18.6316)">
<rect x="-0.0650" y="-1.5000" width="0.1300" height="3.3139" ry="0.0400" fill="currentColor"/>
</g>
<g transform="translate(84.0556, 33.0879)">
<rect x="-0.0650" y="0.6861" width="0.1300" height="2.9806" ry="0.0400" fill="currentColor"/>
</g>
<a style="color:inherit;" xlink:href="textedit://C:/Users/dtsch/Hobby/harmoniously/01-enge-ligging/Psalm-134-TS%204st.ly:28:12:13">
<g transform="translate(72.9192, 39.8897)">
<text font-family="serif" font-size="2.4696" text-anchor="start" fill="currentColor">
<tspan>ne</tspan>
</text>
</g>
</a>
<g transform="translate(74.6672, 18.6316)">
<rect x="-0.0650" y="-2.5000" width="0.1300" height="3.3139" ry="0.0400" fill="currentColor"/>
</g>
<g transform="translate(73.4930, 18.6316)">
<rect x="-0.0650" y="2.6861" width="0.1300" height="2.3139" ry="0.0400" fill="currentColor"/>
</g>
<g transform="translate(74.6672, 33.0879)">
<rect x="-0.0650" y="-5.0000" width="0.1300" height="2.3139" ry="0.0400" fill="currentColor"/>
</g>
<a style="color:inherit;" xlink:href="textedit://C:/Users/dtsch/Hobby/harmoniously/01-enge-ligging/Psalm-134-TS%204st.ly:39:27:28">
<g transform="translate(83.9906, 28.2613)">
<text font-family="serif" font-size="2.2001" text-anchor="start" fill="currentColor">
<tspan>C</tspan>
</text>
</g>
</a>
<a style="color:inherit;" xlink:href="textedit://C:/Users/dtsch/Hobby/harmoniously/01-enge-ligging/Psalm-134-TS%204st.ly:21:23:24">
<g transform="translate(83.9906, 20.6316)">
<path transform="scale(0.0040, -0.0040)" d="M218 136c55 0 108 -28 108 -89c0 -71 -55 -121 -102 -149c-35 -21 -75 -34 -116 -34c-55 0 -108 28 -108 89c0 71 55 121 102 149c35 21 75 34 116 34z" fill="currentColor"/>
</g>
</a>
<a style="color:inherit;" xlink:href="textedit://C:/Users/dtsch/Hobby/harmoniously/01-enge-ligging/Psalm-134-TS%204st.ly:21:24:25">
<g transform="translate(84.2500, 16.0816)">
<path transform="scale(0.0022, -0.0022)" d="M155 457c-34 0 -71 -8 -71 -38c0 -19 32 -23 32 -42c0 -28 -23 -51 -51 -51s-51 23 -51 51c0 72 66 123 141 123c93 0 174 -31 174 -113c0 -36 -10 -65 -42 -80c-17 -8 -26 -25 -26 -41s9 -32 26 -40c37 -17 59 -45 59 -85c0 -94 -83 -141 -186 -141
c-84 0 -160 54 -160 133c0 32 26 58 58 58s58 -26 58 -58c0 -22 -36 -26 -36 -48c0 -33 42 -42 80 -42c41 0 56 50 56 98v21c0 44 -2 77 -43 77h-65c-18 0 -27 14 -27 27s9 27 27 27h65c42 0 43 36 43 83v11c0 43 -20 70 -61 70z" fill="currentColor"/>
</g>
</a>
<a style="color:inherit;" xlink:href="textedit://C:/Users/dtsch/Hobby/harmoniously/01-enge-ligging/Psalm-134-TS%204st.ly:34:11:12">
<g transform="translate(83.9906, 21.6316)">
<path transform="scale(0.0040, -0.0040)" d="M218 136c55 0 108 -28 108 -89c0 -71 -55 -121 -102 -149c-35 -21 -75 -34 -116 -34c-55 0 -108 28 -108 89c0 71 55 121 102 149c35 21 75 34 116 34z" fill="currentColor"/>
</g>
</a>
<a style="color:inherit;" xlink:href="textedit://C:/Users/dtsch/Hobby/harmoniously/01-enge-ligging/Psalm-134-TS%204st.ly:39:25:26">
<g transform="translate(83.9906, 31.5879)">
<path transform="scale(0.0040, -0.0040)" d="M218 136c55 0 108 -28 108 -89c0 -71 -55 -121 -102 -149c-35 -21 -75 -34 -116 -34c-55 0 -108 28 -108 89c0 71 55 121 102 149c35 21 75 34 116 34z" fill="currentColor"/>
</g>
</a>
<a style="color:inherit;" xlink:href="textedit://C:/Users/dtsch/Hobby/harmoniously/01-enge-ligging/Psalm-134-TS%204st.ly:48:11:12">
<g transform="translate(83.9906, 33.5879)">
<path transform="scale(0.0040, -0.0040)" d="M218 136c55 0 108 -28 108 -89c0 -71 -55 -121 -102 -149c-35 -21 -75 -34 -116 -34c-55 0 -108 28 -108 89c0 71 55 121 102 149c35 21 75 34 116 34z" fill="currentColor"/>
</g>
</a>
<a style="color:inherit;" xlink:href="textedit://C:/Users/dtsch/Hobby/harmoniously/01-enge-ligging/Psalm-134-TS%204st.ly:28:22:23">
<g transform="translate(82.8331, 39.8897)">
<text font-family="serif" font-size="2.4696" text-anchor="start" fill="currentColor">
<tspan>ten,</tspan>
</text>
</g>
</a>
<g transform="translate(85.2298, 18.6316)">
<rect x="-0.0650" y="-1.5000" width="0.1300" height="3.3139" ry="0.0400" fill="currentColor"/>
</g>
<g transform="translate(84.0556, 18.6316)">
<rect x="-0.0650" y="3.1861" width="0.1300" height="2.3139" ry="0.0400" fill="currentColor"/>
</g>
<g transform="translate(78.4499, 18.6316)">
<rect x="-0.0650" y="3.1861" width="0.1300" height="2.3139" ry="0.0400" fill="currentColor"/>
</g>
<g transform="translate(79.6241, 33.0879)">
<rect x="-0.0650" y="-4.6667" width="0.1300" height="2.4806" ry="0.0400" fill="currentColor"/>
</g>
<g transform="translate(85.2298, 33.0879)">
<rect x="-0.0650" y="-4.3333" width="0.1300" height="2.6472" ry="0.0400" fill="currentColor"/>
</g>
<g transform="translate(78.4499, 33.0879)">
<rect x="-0.0650" y="1.6861" width="0.1300" height="2.6472" ry="0.0400" fill="currentColor"/>
</g>
<g transform="translate(65.8052, 33.0879)">
<rect x="-0.0650" y="-5.0000" width="0.1300" height="2.2410" ry="0.0400" fill="currentColor"/>
</g>
<g transform="translate(64.5579, 33.0879)">
<rect x="-0.0650" y="-0.2410" width="0.1300" height="3.2410" ry="0.0400" fill="currentColor"/>
</g>
<a style="color:inherit;" xlink:href="textedit://C:/Users/dtsch/Hobby/harmoniously/01-enge-ligging/Psalm-134-TS%204st.ly:21:8:9">
<g transform="translate(70.0601, 20.1316)">
<path transform="scale(0.0040, -0.0040)" d="M218 136c55 0 108 -28 108 -89c0 -71 -55 -121 -102 -149c-35 -21 -75 -34 -116 -34c-55 0 -108 28 -108 89c0 71 55 121 102 149c35 21 75 34 116 34z" fill="currentColor"/>
</g>
</a>
<a style="color:inherit;" xlink:href="textedit://C:/Users/dtsch/Hobby/harmoniously/01-enge-ligging/Psalm-134-TS%204st.ly:21:12:13">
<g transform="translate(70.3196, 16.0816)">
<path transform="scale(0.0022, -0.0022)" d="M64 500c42 -7 84 -14 127 -14s85 7 127 14c2 0 5 1 7 1c17 0 28 -12 28 -22c0 -4 -1 -6 -4 -9c-61 -61 -145 -91 -231 -91c-17 0 -30 -14 -30 -31v-41c25 25 62 25 97 25h5c115 0 181 -55 181 -166c0 -99 -96 -166 -202 -166c-88 0 -169 52 -169 133c0 32 26 58 58 58
s58 -26 58 -58c0 -22 -36 -26 -36 -48c0 -36 47 -42 89 -42c52 0 73 63 73 123c0 53 -6 112 -52 112c-41 0 -84 -1 -107 -33c-6 -8 -14 -11 -22 -11c-14 0 -27 10 -27 27v209c0 17 11 30 26 30h4z" fill="currentColor"/>
</g>
</a>
<a style="color:inherit;" xlink:href="textedit://C:/Users/dtsch/Hobby/harmoniously/01-enge-ligging/Psalm-134-TS%204st.ly:34:4:5">
<g transform="translate(70.0601, 21.1316)">
<path transform="scale(0.0040, -0.0040)" d="M218 136c55 0 108 -28 108 -89c0 -71 -55 -121 -102 -149c-35 -21 -75 -34 -116 -34c-55 0 -108 28 -108 89c0 71 55 121 102 149c35 21 75 34 116 34z" fill="currentColor"/>
</g>
</a>
<a style="color:inherit;" xlink:href="textedit://C:/Users/dtsch/Hobby/harmoniously/01-enge-ligging/Psalm-134-TS%204st.ly:39:8:9">
<g transform="translate(70.0601, 30.5879)">
<path transform="scale(0.0040, -0.0040)" d="M218 136c55 0 108 -28 108 -89c0 -71 -55 -121 -102 -149c-35 -21 -75 -34 -116 -34c-55 0 -108 28 -108 89c0 71 55 121 102 149c35 21 75 34 116 34z" fill="currentColor"/>
</g>
</a>
<a style="color:inherit;" xlink:href="textedit://C:/Users/dtsch/Hobby/harmoniously/01-enge-ligging/Psalm-134-TS%204st.ly:39:10:11">
<g transform="translate(70.0601, 27.6279)">
<text font-family="serif" font-size="2.2001" text-anchor="start" fill="currentColor">
<tspan>Bm</tspan>
</text>
</g>
</a>
<a style="color:inherit;" xlink:href="textedit://C:/Users/dtsch/Hobby/harmoniously/01-enge-ligging/Psalm-134-TS%204st.ly:48:2:3">
<g transform="translate(64.4929, 32.5879)">
<path transform="scale(0.0040, -0.0040)" d="M314 65c0 24 -21 41 -42 41c-4 0 -8 0 -12 -1c-31 -9 -78 -40 -115 -64s-84 -53 -104 -78c-7 -8 -10 -18 -10 -28c0 -24 21 -41 42 -41c4 0 8 0 12 1c31 9 77 40 114 64s84 53 104 78c7 8 11 18 11 28zM262 136c46 0 82 -21 82 -71c0 -19 -4 -39 -10 -57
c-12 -37 -32 -72 -64 -94c-53 -36 -113 -50 -187 -50c-46 0 -83 21 -83 71c0 19 5 39 11 57c12 37 31 72 63 94c53 36 114 50 188 50z" fill="currentColor"/>
</g>
</a>
<a style="color:inherit;" xlink:href="textedit://C:/Users/dtsch/Hobby/harmoniously/01-enge-ligging/Psalm-134-TS%204st.ly:21:2:3">
<g transform="translate(64.4929, 19.6316)">
<path transform="scale(0.0040, -0.0040)" d="M314 65c0 24 -21 41 -42 41c-4 0 -8 0 -12 -1c-31 -9 -78 -40 -115 -64s-84 -53 -104 -78c-7 -8 -10 -18 -10 -28c0 -24 21 -41 42 -41c4 0 8 0 12 1c31 9 77 40 114 64s84 53 104 78c7 8 11 18 11 28zM262 136c46 0 82 -21 82 -71c0 -19 -4 -39 -10 -57
c-12 -37 -32 -72 -64 -94c-53 -36 -113 -50 -187 -50c-46 0 -83 21 -83 71c0 19 5 39 11 57c12 37 31 72 63 94c53 36 114 50 188 50z" fill="currentColor"/>
</g>
</a>
<a style="color:inherit;" xlink:href="textedit://C:/Users/dtsch/Hobby/harmoniously/01-enge-ligging/Psalm-134-TS%204st.ly:21:4:5">
<g transform="translate(64.7889, 16.0816)">
<path transform="scale(0.0022, -0.0022)" d="M155 457c-34 0 -71 -8 -71 -38c0 -19 32 -23 32 -42c0 -28 -23 -51 -51 -51s-51 23 -51 51c0 72 66 123 141 123c93 0 174 -31 174 -113c0 -36 -10 -65 -42 -80c-17 -8 -26 -25 -26 -41s9 -32 26 -40c37 -17 59 -45 59 -85c0 -94 -83 -141 -186 -141
c-84 0 -160 54 -160 133c0 32 26 58 58 58s58 -26 58 -58c0 -22 -36 -26 -36 -48c0 -33 42 -42 80 -42c41 0 56 50 56 98v21c0 44 -2 77 -43 77h-65c-18 0 -27 14 -27 27s9 27 27 27h65c42 0 43 36 43 83v11c0 43 -20 70 -61 70z" fill="currentColor"/>
</g>
</a>
<a style="color:inherit;" xlink:href="textedit://C:/Users/dtsch/Hobby/harmoniously/01-enge-ligging/Psalm-134-TS%204st.ly:34:2:3">
<g transform="translate(64.4929, 20.6316)">
<path transform="scale(0.0040, -0.0040)" d="M314 65c0 24 -21 41 -42 41c-4 0 -8 0 -12 -1c-31 -9 -78 -40 -115 -64s-84 -53 -104 -78c-7 -8 -10 -18 -10 -28c0 -24 21 -41 42 -41c4 0 8 0 12 1c31 9 77 40 114 64s84 53 104 78c7 8 11 18 11 28zM262 136c46 0 82 -21 82 -71c0 -19 -4 -39 -10 -57
c-12 -37 -32 -72 -64 -94c-53 -36 -113 -50 -187 -50c-46 0 -83 21 -83 71c0 19 5 39 11 57c12 37 31 72 63 94c53 36 114 50 188 50z" fill="currentColor"/>
</g>
</a>
<a style="color:inherit;" xlink:href="textedit://C:/Users/dtsch/Hobby/harmoniously/01-enge-ligging/Psalm-134-TS%204st.ly:39:2:3">
<g transform="translate(64.4929, 30.5879)">
<path transform="scale(0.0040, -0.0040)" d="M314 65c0 24 -21 41 -42 41c-4 0 -8 0 -12 -1c-31 -9 -78 -40 -115 -64s-84 -53 -104 -78c-7 -8 -10 -18 -10 -28c0 -24 21 -41 42 -41c4 0 8 0 12 1c31 9 77 40 114 64s84 53 104 78c7 8 11 18 11 28zM262 136c46 0 82 -21 82 -71c0 -19 -4 -39 -10 -57
c-12 -37 -32 -72 -64 -94c-53 -36 -113 -50 -187 -50c-46 0 -83 21 -83 71c0 19 5 39 11 57c12 37 31 72 63 94c53 36 114 50 188 50z" fill="currentColor"/>
</g>
</a>
<a style="color:inherit;" xlink:href="textedit://C:/Users/dtsch/Hobby/harmoniously/01-enge-ligging/Psalm-134-TS%204st.ly:39:4:5">
<g transform="translate(64.4929, 27.6279)">
<text font-family="serif" font-size="2.2001" text-anchor="start" fill="currentColor">
<tspan>Em</tspan>
</text>
</g>
</a>
<a style="color:inherit;" xlink:href="textedit://C:/Users/dtsch/Hobby/harmoniously/01-enge-ligging/Psalm-134-TS%204st.ly:48:4:5">
<g transform="translate(70.0601, 34.0879)">
<path transform="scale(0.0040, -0.0040)" d="M218 136c55 0 108 -28 108 -89c0 -71 -55 -121 -102 -149c-35 -21 -75 -34 -116 -34c-55 0 -108 28 -108 89c0 71 55 121 102 149c35 21 75 34 116 34z" fill="currentColor"/>
</g>
</a>
<a style="color:inherit;" xlink:href="textedit://C:/Users/dtsch/Hobby/harmoniously/01-enge-ligging/Psalm-134-TS%204st.ly:28:2:3">
<g transform="translate(63.3037, 39.8897)">
<text font-family="serif" font-size="2.4696" text-anchor="start" fill="currentColor">
<tspan>Gij,</tspan>
</text>
</g>
</a>
<g transform="translate(65.8052, 18.6316)">
<rect x="-0.0650" y="-2.5000" width="0.1300" height="3.2410" ry="0.0400" fill="currentColor"/>
</g>
<g transform="translate(64.5579, 18.6316)">
<rect x="-0.0650" y="2.2590" width="0.1300" height="2.4077" ry="0.0400" fill="currentColor"/>
</g>
<g transform="translate(70.1251, 33.0879)">
<rect x="-0.0650" y="1.1861" width="0.1300" height="2.8139" ry="0.0400" fill="currentColor"/>
</g>
<a style="color:inherit;" xlink:href="textedit://C:/Users/dtsch/Hobby/harmoniously/01-enge-ligging/Psalm-134-TS%204st.ly:21:15:16">
<g transform="translate(73.4280, 19.6316)">
<path transform="scale(0.0040, -0.0040)" d="M218 136c55 0 108 -28 108 -89c0 -71 -55 -121 -102 -149c-35 -21 -75 -34 -116 -34c-55 0 -108 28 -108 89c0 71 55 121 102 149c35 21 75 34 116 34z" fill="currentColor"/>
</g>
</a>
<a style="color:inherit;" xlink:href="textedit://C:/Users/dtsch/Hobby/harmoniously/01-enge-ligging/Psalm-134-TS%204st.ly:21:16:17">
<g transform="translate(73.6533, 16.0816)">
<path transform="scale(0.0022, -0.0022)" d="M241 312c23 26 39 55 39 90c0 37 -41 55 -82 55c-40 0 -63 -30 -63 -58c0 -15 7 -30 22 -39zM296 280c56 -32 89 -80 89 -132c0 -75 -67 -148 -195 -148c-99 0 -190 60 -190 152c0 47 31 82 65 115c-32 27 -47 62 -47 97c0 69 62 136 180 136c80 0 163 -28 163 -98
c0 -49 -31 -87 -65 -122zM119 233c-22 -23 -38 -48 -38 -81c0 -60 49 -109 109 -109c49 0 77 37 77 71c0 19 -8 38 -27 49z" fill="currentColor"/>
</g>
</a>
<a style="color:inherit;" xlink:href="textedit://C:/Users/dtsch/Hobby/harmoniously/01-enge-ligging/Psalm-134-TS%204st.ly:34:7:8">
<g transform="translate(73.4280, 21.1316)">
<path transform="scale(0.0040, -0.0040)" d="M218 136c55 0 108 -28 108 -89c0 -71 -55 -121 -102 -149c-35 -21 -75 -34 -116 -34c-55 0 -108 28 -108 89c0 71 55 121 102 149c35 21 75 34 116 34z" fill="currentColor"/>
</g>
</a>
<a style="color:inherit;" xlink:href="textedit://C:/Users/dtsch/Hobby/harmoniously/01-enge-ligging/Psalm-134-TS%204st.ly:39:14:15">
<g transform="translate(73.4280, 30.5879)">
<path transform="scale(0.0040, -0.0040)" d="M218 136c55 0 108 -28 108 -89c0 -71 -55 -121 -102 -149c-35 -21 -75 -34 -116 -34c-55 0 -108 28 -108 89c0 71 55 121 102 149c35 21 75 34 116 34z" fill="currentColor"/>
</g>
</a>
<a style="color:inherit;" xlink:href="textedit://C:/Users/dtsch/Hobby/harmoniously/01-enge-ligging/Psalm-134-TS%204st.ly:39:16:17">
<g transform="translate(73.4280, 26.1216)">
<text font-family="serif" font-size="2.2001" text-anchor="start" fill="currentColor">
<tspan>G</tspan>
</text>
</g>
</a>
<g transform="translate(70.1251, 18.6316)">
<rect x="-0.0650" y="2.6861" width="0.1300" height="2.3139" ry="0.0400" fill="currentColor"/>
</g>
<a style="color:inherit;" xlink:href="textedit://C:/Users/dtsch/Hobby/harmoniously/01-enge-ligging/Psalm-134-TS%204st.ly:28:7:8">
<g transform="translate(69.0733, 39.8897)">
<text font-family="serif" font-size="2.4696" text-anchor="start" fill="currentColor">
<tspan>zij-</tspan>
</text>
</g>
</a>
<g transform="translate(71.2993, 18.6316)">
<rect x="-0.0650" y="-2.0000" width="0.1300" height="3.3139" ry="0.0400" fill="currentColor"/>
</g>
<a style="color:inherit;" xlink:href="textedit://C:/Users/dtsch/Hobby/harmoniously/01-enge-ligging/Psalm-134-TS%204st.ly:48:7:8">
<g transform="translate(73.4280, 35.0879)">
<path transform="scale(0.0040, -0.0040)" d="M218 136c55 0 108 -28 108 -89c0 -71 -55 -121 -102 -149c-35 -21 -75 -34 -116 -34c-55 0 -108 28 -108 89c0 71 55 121 102 149c35 21 75 34 116 34z" fill="currentColor"/>
</g>
</a>
<g transform="translate(71.2993, 33.0879)">
<rect x="-0.0650" y="-5.0000" width="0.1300" height="2.3139" ry="0.0400" fill="currentColor"/>
</g>
<g transform="translate(99.9964, 33.0879)">
<rect x="-0.0650" y="0.2590" width="0.1300" height="3.0743" ry="0.0400" fill="currentColor"/>
</g>
<a style="color:inherit;" xlink:href="textedit://C:/Users/dtsch/Hobby/harmoniously/01-enge-ligging/Psalm-134-TS%204st.ly:39:42:43">
<g transform="translate(108.3125, 31.0879)">
<path transform="scale(0.0040, -0.0040)" d="M365 0h-355c-6 0 -10 4 -10 10v136c0 6 4 10 10 10h355c6 0 10 -4 10 -10v-136c0 -6 -4 -10 -10 -10z" fill="currentColor"/>
</g>
</a>
<g transform="translate(99.9964, 18.6316)">
<rect x="-0.0650" y="2.7590" width="0.1300" height="2.2410" ry="0.0400" fill="currentColor"/>
</g>
<a style="color:inherit;" xlink:href="textedit://C:/Users/dtsch/Hobby/harmoniously/01-enge-ligging/Psalm-134-TS%204st.ly:28:37:38">
<g transform="translate(98.7763, 39.8897)">
<text font-family="serif" font-size="2.4696" text-anchor="start" fill="currentColor">
<tspan>eer;</tspan>
</text>
</g>
</a>
<g transform="translate(101.2437, 18.6316)">
<rect x="-0.0650" y="-2.0000" width="0.1300" height="3.2410" ry="0.0400" fill="currentColor"/>
</g>
<g transform="translate(101.2437, 33.0879)">
<rect x="-0.0650" y="-4.6667" width="0.1300" height="2.4077" ry="0.0400" fill="currentColor"/>
</g>
<a style="color:inherit;" xlink:href="textedit://C:/Users/dtsch/Hobby/harmoniously/01-enge-ligging/Psalm-134-TS%204st.ly:20:67:68">
<g transform="translate(40.5476, 18.6316)">
<path stroke-width="0.0800" stroke-linejoin="round" stroke-linecap="round" stroke="currentColor" fill="currentColor" d="M1.2215 -2.1950C3.1483 -3.8348 11.4569 -4.1729 13.5105 -2.6950L13.5105 -2.6950C11.4618 -4.0530 3.1532 -3.7149 1.2215 -2.1950z"/>
</g>
</a>
<a style="color:inherit;" xlink:href="textedit://C:/Users/dtsch/Hobby/harmoniously/01-enge-ligging/Psalm-134-TS%204st.ly:48:18:19">
<g transform="translate(99.9314, 33.0879)">
<path transform="scale(0.0040, -0.0040)" d="M314 65c0 24 -21 41 -42 41c-4 0 -8 0 -12 -1c-31 -9 -78 -40 -115 -64s-84 -53 -104 -78c-7 -8 -10 -18 -10 -28c0 -24 21 -41 42 -41c4 0 8 0 12 1c31 9 77 40 114 64s84 53 104 78c7 8 11 18 11 28zM262 136c46 0 82 -21 82 -71c0 -19 -4 -39 -10 -57
c-12 -37 -32 -72 -64 -94c-53 -36 -113 -50 -187 -50c-46 0 -83 21 -83 71c0 19 5 39 11 57c12 37 31 72 63 94c53 36 114 50 188 50z" fill="currentColor"/>
</g>
</a>
<g transform="translate(88.7369, 18.6316)">
<rect x="-0.0650" y="2.2590" width="0.1300" height="2.4077" ry="0.0400" fill="currentColor"/>
</g>
<g transform="translate(89.9842, 33.0879)">
<rect x="-0.0650" y="-5.5000" width="0.1300" height="2.2410" ry="0.0400" fill="currentColor"/>
</g>
<g transform="translate(88.7369, 33.0879)">
<rect x="-0.0650" y="0.7590" width="0.1300" height="2.9077" ry="0.0400" fill="currentColor"/>
</g>
<a style="color:inherit;" xlink:href="textedit://C:/Users/dtsch/Hobby/harmoniously/01-enge-ligging/Psalm-134-TS%204st.ly:39:32:33">
<g transform="translate(88.6719, 27.0947)">
<text font-family="serif" font-size="2.2001" text-anchor="start" fill="currentColor">
<tspan>C</tspan>
</text>
</g>
</a>
<a style="color:inherit;" xlink:href="textedit://C:/Users/dtsch/Hobby/harmoniously/01-enge-ligging/Psalm-134-TS%204st.ly:21:27:28">
<g transform="translate(88.6719, 19.6316)">
<path transform="scale(0.0040, -0.0040)" d="M314 65c0 24 -21 41 -42 41c-4 0 -8 0 -12 -1c-31 -9 -78 -40 -115 -64s-84 -53 -104 -78c-7 -8 -10 -18 -10 -28c0 -24 21 -41 42 -41c4 0 8 0 12 1c31 9 77 40 114 64s84 53 104 78c7 8 11 18 11 28zM262 136c46 0 82 -21 82 -71c0 -19 -4 -39 -10 -57
c-12 -37 -32 -72 -64 -94c-53 -36 -113 -50 -187 -50c-46 0 -83 21 -83 71c0 19 5 39 11 57c12 37 31 72 63 94c53 36 114 50 188 50z" fill="currentColor"/>
</g>
</a>
<a style="color:inherit;" xlink:href="textedit://C:/Users/dtsch/Hobby/harmoniously/01-enge-ligging/Psalm-134-TS%204st.ly:21:29:30">
<g transform="translate(88.9679, 16.0816)">
<path transform="scale(0.0022, -0.0022)" d="M64 500c42 -7 84 -14 127 -14s85 7 127 14c2 0 5 1 7 1c17 0 28 -12 28 -22c0 -4 -1 -6 -4 -9c-61 -61 -145 -91 -231 -91c-17 0 -30 -14 -30 -31v-41c25 25 62 25 97 25h5c115 0 181 -55 181 -166c0 -99 -96 -166 -202 -166c-88 0 -169 52 -169 133c0 32 26 58 58 58
s58 -26 58 -58c0 -22 -36 -26 -36 -48c0 -36 47 -42 89 -42c52 0 73 63 73 123c0 53 -6 112 -52 112c-41 0 -84 -1 -107 -33c-6 -8 -14 -11 -22 -11c-14 0 -27 10 -27 27v209c0 17 11 30 26 30h4z" fill="currentColor"/>
</g>
</a>
<a style="color:inherit;" xlink:href="textedit://C:/Users/dtsch/Hobby/harmoniously/01-enge-ligging/Psalm-134-TS%204st.ly:34:13:14">
<g transform="translate(88.6719, 20.6316)">
<path transform="scale(0.0040, -0.0040)" d="M314 65c0 24 -21 41 -42 41c-4 0 -8 0 -12 -1c-31 -9 -78 -40 -115 -64s-84 -53 -104 -78c-7 -8 -10 -18 -10 -28c0 -24 21 -41 42 -41c4 0 8 0 12 1c31 9 77 40 114 64s84 53 104 78c7 8 11 18 11 28zM262 136c46 0 82 -21 82 -71c0 -19 -4 -39 -10 -57
c-12 -37 -32 -72 -64 -94c-53 -36 -113 -50 -187 -50c-46 0 -83 21 -83 71c0 19 5 39 11 57c12 37 31 72 63 94c53 36 114 50 188 50z" fill="currentColor"/>
</g>
</a>
<a style="color:inherit;" xlink:href="textedit://C:/Users/dtsch/Hobby/harmoniously/01-enge-ligging/Psalm-134-TS%204st.ly:39:30:31">
<g transform="translate(88.6719, 30.0879)">
<path transform="scale(0.0040, -0.0040)" d="M314 65c0 24 -21 41 -42 41c-4 0 -8 0 -12 -1c-31 -9 -78 -40 -115 -64s-84 -53 -104 -78c-7 -8 -10 -18 -10 -28c0 -24 21 -41 42 -41c4 0 8 0 12 1c31 9 77 40 114 64s84 53 104 78c7 8 11 18 11 28zM262 136c46 0 82 -21 82 -71c0 -19 -4 -39 -10 -57
c-12 -37 -32 -72 -64 -94c-53 -36 -113 -50 -187 -50c-46 0 -83 21 -83 71c0 19 5 39 11 57c12 37 31 72 63 94c53 36 114 50 188 50z" fill="currentColor"/>
</g>
</a>
<a style="color:inherit;" xlink:href="textedit://C:/Users/dtsch/Hobby/harmoniously/01-enge-ligging/Psalm-134-TS%204st.ly:48:13:14">
<g transform="translate(88.6719, 33.5879)">
<path transform="scale(0.0040, -0.0040)" d="M314 65c0 24 -21 41 -42 41c-4 0 -8 0 -12 -1c-31 -9 -78 -40 -115 -64s-84 -53 -104 -78c-7 -8 -10 -18 -10 -28c0 -24 21 -41 42 -41c4 0 8 0 12 1c31 9 77 40 114 64s84 53 104 78c7 8 11 18 11 28zM262 136c46 0 82 -21 82 -71c0 -19 -4 -39 -10 -57
c-12 -37 -32 -72 -64 -94c-53 -36 -113 -50 -187 -50c-46 0 -83 21 -83 71c0 19 5 39 11 57c12 37 31 72 63 94c53 36 114 50 188 50z" fill="currentColor"/>
</g>
</a>
<a style="color:inherit;" xlink:href="textedit://C:/Users/dtsch/Hobby/harmoniously/01-enge-ligging/Psalm-134-TS%204st.ly:28:27:28">
<g transform="translate(86.9023, 39.8897)">
<text font-family="serif" font-size="2.4696" text-anchor="start" fill="currentColor">
<tspan>geeft</tspan>
</text>
</g>
</a>
<g transform="translate(89.9842, 18.6316)">
<rect x="-0.0650" y="-2.5000" width="0.1300" height="3.2410" ry="0.0400" fill="currentColor"/>
</g>
<g transform="translate(95.5515, 33.0879)">
<rect x="-0.0650" y="-5.0000" width="0.1300" height="2.2410" ry="0.0400" fill="currentColor"/>
</g>
<g transform="translate(94.3041, 33.0879)">
<rect x="-0.0650" y="2.2590" width="0.1300" height="2.4077" ry="0.0400" fill="currentColor"/>
</g>
<a style="color:inherit;" xlink:href="textedit://C:/Users/dtsch/Hobby/harmoniously/01-enge-ligging/Psalm-134-TS%204st.ly:21:36:37">
<g transform="translate(99.9314, 20.1316)">
<path transform="scale(0.0040, -0.0040)" d="M314 65c0 24 -21 41 -42 41c-4 0 -8 0 -12 -1c-31 -9 -78 -40 -115 -64s-84 -53 -104 -78c-7 -8 -10 -18 -10 -28c0 -24 21 -41 42 -41c4 0 8 0 12 1c31 9 77 40 114 64s84 53 104 78c7 8 11 18 11 28zM262 136c46 0 82 -21 82 -71c0 -19 -4 -39 -10 -57
c-12 -37 -32 -72 -64 -94c-53 -36 -113 -50 -187 -50c-46 0 -83 21 -83 71c0 19 5 39 11 57c12 37 31 72 63 94c53 36 114 50 188 50z" fill="currentColor"/>
</g>
</a>
<a style="color:inherit;" xlink:href="textedit://C:/Users/dtsch/Hobby/harmoniously/01-enge-ligging/Psalm-134-TS%204st.ly:21:39:40">
<g transform="translate(100.2274, 16.0816)">
<path transform="scale(0.0022, -0.0022)" d="M155 457c-34 0 -71 -8 -71 -38c0 -19 32 -23 32 -42c0 -28 -23 -51 -51 -51s-51 23 -51 51c0 72 66 123 141 123c93 0 174 -31 174 -113c0 -36 -10 -65 -42 -80c-17 -8 -26 -25 -26 -41s9 -32 26 -40c37 -17 59 -45 59 -85c0 -94 -83 -141 -186 -141
c-84 0 -160 54 -160 133c0 32 26 58 58 58s58 -26 58 -58c0 -22 -36 -26 -36 -48c0 -33 42 -42 80 -42c41 0 56 50 56 98v21c0 44 -2 77 -43 77h-65c-18 0 -27 14 -27 27s9 27 27 27h65c42 0 43 36 43 83v11c0 43 -20 70 -61 70z" fill="currentColor"/>
</g>
</a>
<a style="color:inherit;" xlink:href="textedit://C:/Users/dtsch/Hobby/harmoniously/01-enge-ligging/Psalm-134-TS%204st.ly:34:18:19">
<g transform="translate(99.9314, 21.1316)">
<path transform="scale(0.0040, -0.0040)" d="M314 65c0 24 -21 41 -42 41c-4 0 -8 0 -12 -1c-31 -9 -78 -40 -115 -64s-84 -53 -104 -78c-7 -8 -10 -18 -10 -28c0 -24 21 -41 42 -41c4 0 8 0 12 1c31 9 77 40 114 64s84 53 104 78c7 8 11 18 11 28zM262 136c46 0 82 -21 82 -71c0 -19 -4 -39 -10 -57
c-12 -37 -32 -72 -64 -94c-53 -36 -113 -50 -187 -50c-46 0 -83 21 -83 71c0 19 5 39 11 57c12 37 31 72 63 94c53 36 114 50 188 50z" fill="currentColor"/>
</g>
</a>
<a style="color:inherit;" xlink:href="textedit://C:/Users/dtsch/Hobby/harmoniously/01-enge-ligging/Psalm-134-TS%204st.ly:39:40:41">
<g transform="translate(99.9314, 31.0879)">
<path transform="scale(0.0040, -0.0040)" d="M314 65c0 24 -21 41 -42 41c-4 0 -8 0 -12 -1c-31 -9 -78 -40 -115 -64s-84 -53 -104 -78c-7 -8 -10 -18 -10 -28c0 -24 21 -41 42 -41c4 0 8 0 12 1c31 9 77 40 114 64s84 53 104 78c7 8 11 18 11 28zM262 136c46 0 82 -21 82 -71c0 -19 -4 -39 -10 -57
c-12 -37 -32 -72 -64 -94c-53 -36 -113 -50 -187 -50c-46 0 -83 21 -83 71c0 19 5 39 11 57c12 37 31 72 63 94c53 36 114 50 188 50z" fill="currentColor"/>
</g>
</a>
<a style="color:inherit;" xlink:href="textedit://C:/Users/dtsch/Hobby/harmoniously/01-enge-ligging/Psalm-134-TS%204st.ly:39:37:38">
<g transform="translate(94.2391, 27.5947)">
<text font-family="serif" font-size="2.2001" text-anchor="start" fill="currentColor">
<tspan>G</tspan>
</text>
</g>
</a>
<a style="color:inherit;" xlink:href="textedit://C:/Users/dtsch/Hobby/harmoniously/01-enge-ligging/Psalm-134-TS%204st.ly:21:32:33">
<g transform="translate(94.2391, 19.6316)">
<path transform="scale(0.0040, -0.0040)" d="M314 65c0 24 -21 41 -42 41c-4 0 -8 0 -12 -1c-31 -9 -78 -40 -115 -64s-84 -53 -104 -78c-7 -8 -10 -18 -10 -28c0 -24 21 -41 42 -41c4 0 8 0 12 1c31 9 77 40 114 64s84 53 104 78c7 8 11 18 11 28zM262 136c46 0 82 -21 82 -71c0 -19 -4 -39 -10 -57
c-12 -37 -32 -72 -64 -94c-53 -36 -113 -50 -187 -50c-46 0 -83 21 -83 71c0 19 5 39 11 57c12 37 31 72 63 94c53 36 114 50 188 50z" fill="currentColor"/>
</g>
</a>
<a style="color:inherit;" xlink:href="textedit://C:/Users/dtsch/Hobby/harmoniously/01-enge-ligging/Psalm-134-TS%204st.ly:21:33:34">
<g transform="translate(94.5010, 16.0816)">
<path transform="scale(0.0022, -0.0022)" d="M241 312c23 26 39 55 39 90c0 37 -41 55 -82 55c-40 0 -63 -30 -63 -58c0 -15 7 -30 22 -39zM296 280c56 -32 89 -80 89 -132c0 -75 -67 -148 -195 -148c-99 0 -190 60 -190 152c0 47 31 82 65 115c-32 27 -47 62 -47 97c0 69 62 136 180 136c80 0 163 -28 163 -98
c0 -49 -31 -87 -65 -122zM119 233c-22 -23 -38 -48 -38 -81c0 -60 49 -109 109 -109c49 0 77 37 77 71c0 19 -8 38 -27 49z" fill="currentColor"/>
</g>
</a>
<a style="color:inherit;" xlink:href="textedit://C:/Users/dtsch/Hobby/harmoniously/01-enge-ligging/Psalm-134-TS%204st.ly:34:16:17">
<g transform="translate(94.2391, 21.1316)">
<path transform="scale(0.0040, -0.0040)" d="M314 65c0 24 -21 41 -42 41c-4 0 -8 0 -12 -1c-31 -9 -78 -40 -115 -64s-84 -53 -104 -78c-7 -8 -10 -18 -10 -28c0 -24 21 -41 42 -41c4 0 8 0 12 1c31 9 77 40 114 64s84 53 104 78c7 8 11 18 11 28zM262 136c46 0 82 -21 82 -71c0 -19 -4 -39 -10 -57
c-12 -37 -32 -72 -64 -94c-53 -36 -113 -50 -187 -50c-46 0 -83 21 -83 71c0 19 5 39 11 57c12 37 31 72 63 94c53 36 114 50 188 50z" fill="currentColor"/>
</g>
</a>
<a style="color:inherit;" xlink:href="textedit://C:/Users/dtsch/Hobby/harmoniously/01-enge-ligging/Psalm-134-TS%204st.ly:39:35:36">
<g transform="translate(94.2391, 30.5879)">
<path transform="scale(0.0040, -0.0040)" d="M314 65c0 24 -21 41 -42 41c-4 0 -8 0 -12 -1c-31 -9 -78 -40 -115 -64s-84 -53 -104 -78c-7 -8 -10 -18 -10 -28c0 -24 21 -41 42 -41c4 0 8 0 12 1c31 9 77 40 114 64s84 53 104 78c7 8 11 18 11 28zM262 136c46 0 82 -21 82 -71c0 -19 -4 -39 -10 -57
c-12 -37 -32 -72 -64 -94c-53 -36 -113 -50 -187 -50c-46 0 -83 21 -83 71c0 19 5 39 11 57c12 37 31 72 63 94c53 36 114 50 188 50z" fill="currentColor"/>
</g>
</a>
<a style="color:inherit;" xlink:href="textedit://C:/Users/dtsch/Hobby/harmoniously/01-enge-ligging/Psalm-134-TS%204st.ly:48:16:17">
<g transform="translate(94.2391, 35.0879)">
<path transform="scale(0.0040, -0.0040)" d="M314 65c0 24 -21 41 -42 41c-4 0 -8 0 -12 -1c-31 -9 -78 -40 -115 -64s-84 -53 -104 -78c-7 -8 -10 -18 -10 -28c0 -24 21 -41 42 -41c4 0 8 0 12 1c31 9 77 40 114 64s84 53 104 78c7 8 11 18 11 28zM262 136c46 0 82 -21 82 -71c0 -19 -4 -39 -10 -57
c-12 -37 -32 -72 -64 -94c-53 -36 -113 -50 -187 -50c-46 0 -83 21 -83 71c0 19 5 39 11 57c12 37 31 72 63 94c53 36 114 50 188 50z" fill="currentColor"/>
</g>
</a>
<a style="color:inherit;" xlink:href="textedit://C:/Users/dtsch/Hobby/harmoniously/01-enge-ligging/Psalm-134-TS%204st.ly:28:33:34">
<g transform="translate(92.5378, 39.8897)">
<text font-family="serif" font-size="2.4696" text-anchor="start" fill="currentColor">
<tspan>Hem</tspan>
</text>
</g>
</a>
<g transform="translate(95.5515, 18.6316)">
<rect x="-0.0650" y="-2.5000" width="0.1300" height="3.2410" ry="0.0400" fill="currentColor"/>
</g>
<g transform="translate(94.3041, 18.6316)">
<rect x="-0.0650" y="2.7590" width="0.1300" height="2.2410" ry="0.0400" fill="currentColor"/>
</g>
<g transform="translate(29.6379, 33.0879)">
<rect x="-0.0650" y="0.1861" width="0.1300" height="3.1472" ry="0.0400" fill="currentColor"/>
</g>
<a style="color:inherit;" xlink:href="textedit://C:/Users/dtsch/Hobby/harmoniously/01-enge-ligging/Psalm-134-TS%204st.ly:20:55:56">
<g transform="translate(32.9408, 19.1316)">
<path transform="scale(0.0040, -0.0040)" d="M218 136c55 0 108 -28 108 -89c0 -71 -55 -121 -102 -149c-35 -21 -75 -34 -116 -34c-55 0 -108 28 -108 89c0 71 55 121 102 149c35 21 75 34 116 34z" fill="currentColor"/>
</g>
</a>
<a style="color:inherit;" xlink:href="textedit://C:/Users/dtsch/Hobby/harmoniously/01-enge-ligging/Psalm-134-TS%204st.ly:20:57:58">
<g transform="translate(33.2003, 16.0816)">
<path transform="scale(0.0022, -0.0022)" d="M155 457c-34 0 -71 -8 -71 -38c0 -19 32 -23 32 -42c0 -28 -23 -51 -51 -51s-51 23 -51 51c0 72 66 123 141 123c93 0 174 -31 174 -113c0 -36 -10 -65 -42 -80c-17 -8 -26 -25 -26 -41s9 -32 26 -40c37 -17 59 -45 59 -85c0 -94 -83 -141 -186 -141
c-84 0 -160 54 -160 133c0 32 26 58 58 58s58 -26 58 -58c0 -22 -36 -26 -36 -48c0 -33 42 -42 80 -42c41 0 56 50 56 98v21c0 44 -2 77 -43 77h-65c-18 0 -27 14 -27 27s9 27 27 27h65c42 0 43 36 43 83v11c0 43 -20 70 -61 70z" fill="currentColor"/>
</g>
</a>
<a style="color:inherit;" xlink:href="textedit://C:/Users/dtsch/Hobby/harmoniously/01-enge-ligging/Psalm-134-TS%204st.ly:33:10:11">
<g transform="translate(32.9408, 21.6316)">
<path transform="scale(0.0040, -0.0040)" d="M218 136c55 0 108 -28 108 -89c0 -71 -55 -121 -102 -149c-35 -21 -75 -34 -116 -34c-55 0 -108 28 -108 89c0 71 55 121 102 149c35 21 75 34 116 34z" fill="currentColor"/>
</g>
</a>
<a style="color:inherit;" xlink:href="textedit://C:/Users/dtsch/Hobby/harmoniously/01-enge-ligging/Psalm-134-TS%204st.ly:38:19:20">
<g transform="translate(32.9408, 32.5879)">
<path transform="scale(0.0040, -0.0040)" d="M218 136c55 0 108 -28 108 -89c0 -71 -55 -121 -102 -149c-35 -21 -75 -34 -116 -34c-55 0 -108 28 -108 89c0 71 55 121 102 149c35 21 75 34 116 34z" fill="currentColor"/>
</g>
</a>
<a style="color:inherit;" xlink:href="textedit://C:/Users/dtsch/Hobby/harmoniously/01-enge-ligging/Psalm-134-TS%204st.ly:38:21:22">
<g transform="translate(32.9408, 28.9613)">
<text font-family="serif" font-size="2.2001" text-anchor="start" fill="currentColor">
<tspan>Am</tspan>
</text>
</g>
</a>
<a style="color:inherit;" xlink:href="textedit://C:/Users/dtsch/Hobby/harmoniously/01-enge-ligging/Psalm-134-TS%204st.ly:47:11:12">
<g transform="translate(32.9408, 34.5879)">
<path transform="scale(0.0040, -0.0040)" d="M218 136c55 0 108 -28 108 -89c0 -71 -55 -121 -102 -149c-35 -21 -75 -34 -116 -34c-55 0 -108 28 -108 89c0 71 55 121 102 149c35 21 75 34 116 34z" fill="currentColor"/>
</g>
</a>
<a style="color:inherit;" xlink:href="textedit://C:/Users/dtsch/Hobby/harmoniously/01-enge-ligging/Psalm-134-TS%204st.ly:27:18:19">
<g transform="translate(31.9541, 39.8897)">
<text font-family="serif" font-size="2.4696" text-anchor="start" fill="currentColor">
<tspan>all-</tspan>
</text>
</g>
</a>
<a style="color:inherit;" xlink:href="textedit://C:/Users/dtsch/Hobby/harmoniously/01-enge-ligging/Psalm-134-TS%204st.ly:20:52:53">
<g transform="translate(29.7983, 16.0816)">
<path transform="scale(0.0022, -0.0022)" d="M241 312c23 26 39 55 39 90c0 37 -41 55 -82 55c-40 0 -63 -30 -63 -58c0 -15 7 -30 22 -39zM296 280c56 -32 89 -80 89 -132c0 -75 -67 -148 -195 -148c-99 0 -190 60 -190 152c0 47 31 82 65 115c-32 27 -47 62 -47 97c0 69 62 136 180 136c80 0 163 -28 163 -98
c0 -49 -31 -87 -65 -122zM119 233c-22 -23 -38 -48 -38 -81c0 -60 49 -109 109 -109c49 0 77 37 77 71c0 19 -8 38 -27 49z" fill="currentColor"/>
</g>
</a>
<a style="color:inherit;" xlink:href="textedit://C:/Users/dtsch/Hobby/harmoniously/01-enge-ligging/Psalm-134-TS%204st.ly:33:8:9">
<g transform="translate(29.5729, 21.1316)">
<path transform="scale(0.0040, -0.0040)" d="M218 136c55 0 108 -28 108 -89c0 -71 -55 -121 -102 -149c-35 -21 -75 -34 -116 -34c-55 0 -108 28 -108 89c0 71 55 121 102 149c35 21 75 34 116 34z" fill="currentColor"/>
</g>
</a>
<a style="color:inherit;" xlink:href="textedit://C:/Users/dtsch/Hobby/harmoniously/01-enge-ligging/Psalm-134-TS%204st.ly:38:12:13">
<g transform="translate(29.5729, 32.0879)">
<path transform="scale(0.0040, -0.0040)" d="M218 136c55 0 108 -28 108 -89c0 -71 -55 -121 -102 -149c-35 -21 -75 -34 -116 -34c-55 0 -108 28 -108 89c0 71 55 121 102 149c35 21 75 34 116 34z" fill="currentColor"/>
</g>
</a>
<a style="color:inherit;" xlink:href="textedit://C:/Users/dtsch/Hobby/harmoniously/01-enge-ligging/Psalm-134-TS%204st.ly:38:16:17">
<g transform="translate(29.5729, 28.6279)">
<text font-family="serif" font-size="2.2001" text-anchor="start" fill="currentColor">
<tspan>D</tspan>
</text>
</g>
</a>
<a style="color:inherit;" xlink:href="textedit://C:/Users/dtsch/Hobby/harmoniously/01-enge-ligging/Psalm-134-TS%204st.ly:47:8:9">
<g transform="translate(29.5729, 33.0879)">
<path transform="scale(0.0040, -0.0040)" d="M218 136c55 0 108 -28 108 -89c0 -71 -55 -121 -102 -149c-35 -21 -75 -34 -116 -34c-55 0 -108 28 -108 89c0 71 55 121 102 149c35 21 75 34 116 34z" fill="currentColor"/>
</g>
</a>
<a style="color:inherit;" xlink:href="textedit://C:/Users/dtsch/Hobby/harmoniously/01-enge-ligging/Psalm-134-TS%204st.ly:27:15:16">
<g transform="translate(28.9959, 39.8897)">
<text font-family="serif" font-size="2.4696" text-anchor="start" fill="currentColor">
<tspan>nu</tspan>
</text>
</g>
</a>
<g transform="translate(30.8122, 18.6316)">
<rect x="-0.0650" y="-3.0000" width="0.1300" height="3.3139" ry="0.0400" fill="currentColor"/>
</g>
<g transform="translate(34.1801, 18.6316)">
<rect x="-0.0650" y="-3.0000" width="0.1300" height="3.3139" ry="0.0400" fill="currentColor"/>
</g>
<g transform="translate(29.6379, 18.6316)">
<rect x="-0.0650" y="2.6861" width="0.1300" height="2.3139" ry="0.0400" fill="currentColor"/>
</g>
<g transform="translate(30.8122, 33.0879)">
<rect x="-0.0650" y="-4.0000" width="0.1300" height="2.8139" ry="0.0400" fill="currentColor"/>
</g>
<a style="color:inherit;" xlink:href="textedit://C:/Users/dtsch/Hobby/harmoniously/01-enge-ligging/Psalm-134-TS%204st.ly:20:63:64">
<g transform="translate(36.5525, 16.0816)">
<path transform="scale(0.0022, -0.0022)" d="M241 312c23 26 39 55 39 90c0 37 -41 55 -82 55c-40 0 -63 -30 -63 -58c0 -15 7 -30 22 -39zM296 280c56 -32 89 -80 89 -132c0 -75 -67 -148 -195 -148c-99 0 -190 60 -190 152c0 47 31 82 65 115c-32 27 -47 62 -47 97c0 69 62 136 180 136c80 0 163 -28 163 -98
c0 -49 -31 -87 -65 -122zM119 233c-22 -23 -38 -48 -38 -81c0 -60 49 -109 109 -109c49 0 77 37 77 71c0 19 -8 38 -27 49z" fill="currentColor"/>
</g>
</a>
<a style="color:inherit;" xlink:href="textedit://C:/Users/dtsch/Hobby/harmoniously/01-enge-ligging/Psalm-134-TS%204st.ly:20:60:61">
<g transform="translate(36.3272, 20.1316)">
<path transform="scale(0.0040, -0.0040)" d="M218 136c55 0 108 -28 108 -89c0 -71 -55 -121 -102 -149c-35 -21 -75 -34 -116 -34c-55 0 -108 28 -108 89c0 71 55 121 102 149c35 21 75 34 116 34z" fill="currentColor"/>
</g>
</a>
<a style="color:inherit;" xlink:href="textedit://C:/Users/dtsch/Hobby/harmoniously/01-enge-ligging/Psalm-134-TS%204st.ly:33:12:13">
<g transform="translate(36.3272, 22.1316)">
<path transform="scale(0.0040, -0.0040)" d="M218 136c55 0 108 -28 108 -89c0 -71 -55 -121 -102 -149c-35 -21 -75 -34 -116 -34c-55 0 -108 28 -108 89c0 71 55 121 102 149c35 21 75 34 116 34z" fill="currentColor"/>
</g>
</a>
<a style="color:inherit;" xlink:href="textedit://C:/Users/dtsch/Hobby/harmoniously/01-enge-ligging/Psalm-134-TS%204st.ly:38:25:26">
<g transform="translate(36.3272, 33.0879)">
<path transform="scale(0.0040, -0.0040)" d="M218 136c55 0 108 -28 108 -89c0 -71 -55 -121 -102 -149c-35 -21 -75 -34 -116 -34c-55 0 -108 28 -108 89c0 71 55 121 102 149c35 21 75 34 116 34z" fill="currentColor"/>
</g>
</a>
<a style="color:inherit;" xlink:href="textedit://C:/Users/dtsch/Hobby/harmoniously/01-enge-ligging/Psalm-134-TS%204st.ly:38:27:28">
<g transform="translate(36.3272, 27.4882)">
<text font-family="serif" font-size="2.2001" text-anchor="start" fill="currentColor">
<tspan>Bm</tspan>
</text>
</g>
</a>
<a style="color:inherit;" xlink:href="textedit://C:/Users/dtsch/Hobby/harmoniously/01-enge-ligging/Psalm-134-TS%204st.ly:27:23:24">
<g transform="translate(35.6818, 39.8897)">
<text font-family="serif" font-size="2.4696" text-anchor="start" fill="currentColor">
<tspan>ler</tspan>
</text>
</g>
</a>
<g transform="translate(37.5664, 18.6316)">
<rect x="-0.0650" y="-2.0000" width="0.1300" height="3.3139" ry="0.0400" fill="currentColor"/>
</g>
<g transform="translate(33.0058, 18.6316)">
<rect x="-0.0650" y="3.1861" width="0.1300" height="2.3139" ry="0.0400" fill="currentColor"/>
</g>
<a style="color:inherit;" xlink:href="textedit://C:/Users/dtsch/Hobby/harmoniously/01-enge-ligging/Psalm-134-TS%204st.ly:20:51:52">
<g transform="translate(29.5729, 19.1316)">
<path transform="scale(0.0040, -0.0040)" d="M218 136c55 0 108 -28 108 -89c0 -71 -55 -121 -102 -149c-35 -21 -75 -34 -116 -34c-55 0 -108 28 -108 89c0 71 55 121 102 149c35 21 75 34 116 34z" fill="currentColor"/>
</g>
</a>
<g transform="translate(34.1801, 33.0879)">
<rect x="-0.0650" y="-3.6667" width="0.1300" height="2.9806" ry="0.0400" fill="currentColor"/>
</g>
<g transform="translate(33.0058, 33.0879)">
<rect x="-0.0650" y="1.6861" width="0.1300" height="2.6472" ry="0.0400" fill="currentColor"/>
</g>
<a style="color:inherit;" xlink:href="textedit://C:/Users/dtsch/Hobby/harmoniously/01-enge-ligging/Psalm-134-TS%204st.ly:46:2:3">
<g transform="translate(16.1250, 32.0879)">
<path transform="scale(0.0040, -0.0040)" d="M0 119c0 8 5 15 13 18l46 17v158c0 10 8 19 18 19s19 -9 19 -19v-145l83 31v158c0 10 9 19 19 19s18 -9 18 -19v-145l32 12c2 1 5 1 7 1c11 0 20 -9 20 -20v-60c0 -8 -5 -16 -13 -19l-46 -16v-160l32 11c2 1 5 1 7 1c11 0 20 -9 20 -20v-60c0 -8 -5 -15 -13 -18l-46 -17
v-158c0 -10 -8 -19 -18 -19s-19 9 -19 19v145l-83 -31v-158c0 -10 -9 -19 -19 -19s-18 9 -18 19v145l-32 -12c-2 -1 -5 -1 -7 -1c-11 0 -20 9 -20 20v60c0 8 5 16 13 19l46 16v160l-32 -11c-2 -1 -5 -1 -7 -1c-11 0 -20 9 -20 20v60zM179 95l-83 -30v-160l83 30v160z" fill="currentColor"/>
</g>
</a>
<a style="color:inherit;" xlink:href="textedit://C:/Users/dtsch/Hobby/harmoniously/01-enge-ligging/Psalm-134-TS%204st.ly:27:2:3">
<g transform="translate(17.3749, 39.8897)">
<text font-family="serif" font-size="2.4696" text-anchor="start" fill="currentColor">
<tspan>Looft,</tspan>
</text>
</g>
</a>
<g transform="translate(21.0373, 18.6316)">
<rect x="-0.0650" y="-3.3333" width="0.1300" height="3.0743" ry="0.0400" fill="currentColor"/>
</g>
<g transform="translate(19.7900, 18.6316)">
<rect x="-0.0650" y="2.7590" width="0.1300" height="2.2410" ry="0.0400" fill="currentColor"/>
</g>
<g transform="translate(12.6250, 32.0879)">
<path transform="scale(0.0040, -0.0040)" d="M557 -125c0 28 23 51 51 51s51 -23 51 -51s-23 -51 -51 -51s-51 23 -51 51zM557 125c0 28 23 51 51 51s51 -23 51 -51s-23 -51 -51 -51s-51 23 -51 51zM232 263c172 0 293 -88 293 -251c0 -263 -263 -414 -516 -521c-3 -3 -6 -4 -9 -4c-7 0 -13 6 -13 13c0 3 1 6 4 9
c202 118 412 265 412 493c0 120 -63 235 -171 235c-74 0 -129 -54 -154 -126c11 5 22 8 34 8c55 0 100 -45 100 -100c0 -58 -44 -106 -100 -106c-60 0 -112 47 -112 106c0 133 102 244 232 244z" fill="currentColor"/>
</g>
<g transform="translate(21.0373, 33.0879)">
<rect x="-0.0650" y="-4.3333" width="0.1300" height="2.5743" ry="0.0400" fill="currentColor"/>
</g>
<g transform="translate(19.7900, 33.0879)">
<rect x="-0.0650" y="2.2590" width="0.1300" height="2.4077" ry="0.0400" fill="currentColor"/>
</g>
<a style="color:inherit;" xlink:href="textedit://C:/Users/dtsch/Hobby/harmoniously/01-enge-ligging/Psalm-134-TS%204st.ly:20:2:3">
<g transform="translate(19.7250, 18.6316)">
<path transform="scale(0.0040, -0.0040)" d="M314 65c0 24 -21 41 -42 41c-4 0 -8 0 -12 -1c-31 -9 -78 -40 -115 -64s-84 -53 -104 -78c-7 -8 -10 -18 -10 -28c0 -24 21 -41 42 -41c4 0 8 0 12 1c31 9 77 40 114 64s84 53 104 78c7 8 11 18 11 28zM262 136c46 0 82 -21 82 -71c0 -19 -4 -39 -10 -57
c-12 -37 -32 -72 -64 -94c-53 -36 -113 -50 -187 -50c-46 0 -83 21 -83 71c0 19 5 39 11 57c12 37 31 72 63 94c53 36 114 50 188 50z" fill="currentColor"/>
</g>
</a>
<g transform="translate(10.5150, 16.3566)">
<path transform="scale(0.0040, -0.0040)" d="M0 -56v87c0 14 11 25 25 25h50c159 0 271 136 362 270c11 17 37 -1 26 -18c-99 -144 -215 -364 -388 -364h-75z" fill="currentColor"/>
</g>
<g transform="translate(10.5150, 35.3629)">
<path transform="scale(0.0040, -0.0040)" d="M0 56h75c173 0 289 -220 388 -364c11 -17 -15 -35 -26 -18c-91 134 -203 270 -362 270h-50c-14 0 -25 11 -25 25v87z" fill="currentColor"/>
</g>
<g transform="translate(10.5150, 25.8598)">
<rect x="0.0000" y="-9.3232" width="0.4500" height="18.6463" ry="0.0000" fill="currentColor"/>
</g>
<g transform="translate(11.7650, 25.8598)">
<rect x="0.0000" y="-9.2782" width="0.1600" height="18.5563" ry="0.0500" fill="currentColor"/>
</g>
<a style="color:inherit;" xlink:href="textedit://C:/Users/dtsch/Hobby/harmoniously/01-enge-ligging/Psalm-134-TS%204st.ly:20:4:5">
<g transform="translate(20.0210, 16.0816)">
<path transform="scale(0.0022, -0.0022)" d="M64 500c42 -7 84 -14 127 -14s85 7 127 14c2 0 5 1 7 1c17 0 28 -12 28 -22c0 -4 -1 -6 -4 -9c-61 -61 -145 -91 -231 -91c-17 0 -30 -14 -30 -31v-41c25 25 62 25 97 25h5c115 0 181 -55 181 -166c0 -99 -96 -166 -202 -166c-88 0 -169 52 -169 133c0 32 26 58 58 58
s58 -26 58 -58c0 -22 -36 -26 -36 -48c0 -36 47 -42 89 -42c52 0 73 63 73 123c0 53 -6 112 -52 112c-41 0 -84 -1 -107 -33c-6 -8 -14 -11 -22 -11c-14 0 -27 10 -27 27v209c0 17 11 30 26 30h4z" fill="currentColor"/>
</g>
</a>
<a style="color:inherit;" xlink:href="textedit://C:/Users/dtsch/Hobby/harmoniously/01-enge-ligging/Psalm-134-TS%204st.ly:33:2:3">
<g transform="translate(19.7250, 21.1316)">
<path transform="scale(0.0040, -0.0040)" d="M314 65c0 24 -21 41 -42 41c-4 0 -8 0 -12 -1c-31 -9 -78 -40 -115 -64s-84 -53 -104 -78c-7 -8 -10 -18 -10 -28c0 -24 21 -41 42 -41c4 0 8 0 12 1c31 9 77 40 114 64s84 53 104 78c7 8 11 18 11 28zM262 136c46 0 82 -21 82 -71c0 -19 -4 -39 -10 -57
c-12 -37 -32 -72 -64 -94c-53 -36 -113 -50 -187 -50c-46 0 -83 21 -83 71c0 19 5 39 11 57c12 37 31 72 63 94c53 36 114 50 188 50z" fill="currentColor"/>
</g>
</a>
<g transform="translate(12.6250, 19.6316)">
<path transform="scale(0.0040, -0.0040)" d="M266 -635h-6c-108 0 -195 88 -195 197c0 58 53 103 112 103c54 0 95 -47 95 -103c0 -52 -43 -95 -95 -95c-11 0 -21 2 -31 6c26 -39 68 -65 117 -65h4zM461 -203c68 24 113 95 113 164c0 90 -66 179 -173 190c24 -116 46 -231 60 -354zM74 28c0 -135 129 -247 264 -247
c28 0 55 2 82 6c-14 127 -37 245 -63 364c-79 -8 -124 -61 -124 -119c0 -44 25 -91 81 -123c5 -5 7 -10 7 -15c0 -11 -10 -22 -22 -22c-3 0 -6 1 -9 2c-80 43 -117 115 -117 185c0 88 58 174 160 197c-14 58 -29 117 -46 175c-107 -121 -213 -243 -213 -403zM335 -262
c-188 0 -333 172 -333 374c0 177 131 306 248 441c-19 62 -37 125 -45 190c-6 52 -7 104 -7 156c0 115 55 224 149 292c6 5 14 5 20 0c71 -84 133 -245 133 -358c0 -143 -86 -255 -180 -364c21 -68 39 -138 56 -207c4 0 9 1 13 1c155 0 256 -128 256 -261
c0 -76 -33 -154 -107 -210c-22 -17 -47 -28 -73 -36c3 -35 5 -70 5 -105c0 -19 -1 -39 -2 -58c-7 -119 -88 -225 -202 -228l1 43c93 2 153 92 159 191c1 18 2 37 2 55c0 31 -1 61 -4 92c-29 -5 -58 -8 -89 -8zM428 916c0 55 -4 79 -20 129c-99 -48 -162 -149 -162 -259
c0 -74 18 -133 36 -194c80 97 146 198 146 324z" fill="currentColor"/>
</g>
<a style="color:inherit;" xlink:href="textedit://C:/Users/dtsch/Hobby/harmoniously/01-enge-ligging/Psalm-134-TS%204st.ly:19:3:4">
<g transform="translate(16.1250, 16.6316)">
<path transform="scale(0.0040, -0.0040)" d="M0 119c0 8 5 15 13 18l46 17v158c0 10 8 19 18 19s19 -9 19 -19v-145l83 31v158c0 10 9 19 19 19s18 -9 18 -19v-145l32 12c2 1 5 1 7 1c11 0 20 -9 20 -20v-60c0 -8 -5 -16 -13 -19l-46 -16v-160l32 11c2 1 5 1 7 1c11 0 20 -9 20 -20v-60c0 -8 -5 -15 -13 -18l-46 -17
v-158c0 -10 -8 -19 -18 -19s-19 9 -19 19v145l-83 -31v-158c0 -10 -9 -19 -19 -19s-18 9 -18 19v145l-32 -12c-2 -1 -5 -1 -7 -1c-11 0 -20 9 -20 20v60c0 8 5 16 13 19l46 16v160l-32 -11c-2 -1 -5 -1 -7 -1c-11 0 -20 9 -20 20v60zM179 95l-83 -30v-160l83 30v160z" fill="currentColor"/>
</g>
</a>
<a style="color:inherit;" xlink:href="textedit://C:/Users/dtsch/Hobby/harmoniously/01-enge-ligging/Psalm-134-TS%204st.ly:38:2:3">
<g transform="translate(19.7250, 31.5879)">
<path transform="scale(0.0040, -0.0040)" d="M314 65c0 24 -21 41 -42 41c-4 0 -8 0 -12 -1c-31 -9 -78 -40 -115 -64s-84 -53 -104 -78c-7 -8 -10 -18 -10 -28c0 -24 21 -41 42 -41c4 0 8 0 12 1c31 9 77 40 114 64s84 53 104 78c7 8 11 18 11 28zM262 136c46 0 82 -21 82 -71c0 -19 -4 -39 -10 -57
c-12 -37 -32 -72 -64 -94c-53 -36 -113 -50 -187 -50c-46 0 -83 21 -83 71c0 19 5 39 11 57c12 37 31 72 63 94c53 36 114 50 188 50z" fill="currentColor"/>
</g>
</a>
<a style="color:inherit;" xlink:href="textedit://C:/Users/dtsch/Hobby/harmoniously/01-enge-ligging/Psalm-134-TS%204st.ly:81:16:17">
<g transform="translate(17.7250, 30.1031)">
<text font-family="serif" font-style="italic" font-size="2.2001" text-anchor="start" fill="currentColor">
<tspan>c.f.</tspan>
</text>
</g>
</a>
<a style="color:inherit;" xlink:href="textedit://C:/Users/dtsch/Hobby/harmoniously/01-enge-ligging/Psalm-134-TS%204st.ly:38:4:5">
<g transform="translate(17.7250, 28.0822)">
<text font-family="serif" font-size="2.2001" text-anchor="start" fill="currentColor">
<tspan>G</tspan>
</text>
</g>
</a>
<a style="color:inherit;" xlink:href="textedit://C:/Users/dtsch/Hobby/harmoniously/01-enge-ligging/Psalm-134-TS%204st.ly:47:2:3">
<g transform="translate(19.7250, 35.0879)">
<path transform="scale(0.0040, -0.0040)" d="M314 65c0 24 -21 41 -42 41c-4 0 -8 0 -12 -1c-31 -9 -78 -40 -115 -64s-84 -53 -104 -78c-7 -8 -10 -18 -10 -28c0 -24 21 -41 42 -41c4 0 8 0 12 1c31 9 77 40 114 64s84 53 104 78c7 8 11 18 11 28zM262 136c46 0 82 -21 82 -71c0 -19 -4 -39 -10 -57
c-12 -37 -32 -72 -64 -94c-53 -36 -113 -50 -187 -50c-46 0 -83 21 -83 71c0 19 5 39 11 57c12 37 31 72 63 94c53 36 114 50 188 50z" fill="currentColor"/>
</g>
</a>
<g transform="translate(26.8113, 33.0879)">
<rect x="-0.0650" y="-4.3333" width="0.1300" height="2.6472" ry="0.0400" fill="currentColor"/>
</g>
<g transform="translate(25.6370, 18.6316)">
<rect x="-0.0650" y="2.6861" width="0.1300" height="2.3139" ry="0.0400" fill="currentColor"/>
</g>
<g transform="translate(26.8113, 18.6316)">
<rect x="-0.0650" y="-3.3333" width="0.1300" height="3.1472" ry="0.0400" fill="currentColor"/>
</g>
<g transform="translate(25.6370, 33.0879)">
<rect x="-0.0650" y="2.1861" width="0.1300" height="2.4806" ry="0.0400" fill="currentColor"/>
</g>
<a style="color:inherit;" xlink:href="textedit://C:/Users/dtsch/Hobby/harmoniously/01-enge-ligging/Psalm-134-TS%204st.ly:47:13:14">
<g transform="translate(36.3272, 34.0879)">
<path transform="scale(0.0040, -0.0040)" d="M218 136c55 0 108 -28 108 -89c0 -71 -55 -121 -102 -149c-35 -21 -75 -34 -116 -34c-55 0 -108 28 -108 89c0 71 55 121 102 149c35 21 75 34 116 34z" fill="currentColor"/>
</g>
</a>
<a style="color:inherit;" xlink:href="textedit://C:/Users/dtsch/Hobby/harmoniously/01-enge-ligging/Psalm-134-TS%204st.ly:20:8:9">
<g transform="translate(25.5720, 18.6316)">
<path transform="scale(0.0040, -0.0040)" d="M218 136c55 0 108 -28 108 -89c0 -71 -55 -121 -102 -149c-35 -21 -75 -34 -116 -34c-55 0 -108 28 -108 89c0 71 55 121 102 149c35 21 75 34 116 34z" fill="currentColor"/>
</g>
</a>
<a style="color:inherit;" xlink:href="textedit://C:/Users/dtsch/Hobby/harmoniously/01-enge-ligging/Psalm-134-TS%204st.ly:20:10:11">
<g transform="translate(25.8315, 16.0816)">
<path transform="scale(0.0022, -0.0022)" d="M64 500c42 -7 84 -14 127 -14s85 7 127 14c2 0 5 1 7 1c17 0 28 -12 28 -22c0 -4 -1 -6 -4 -9c-61 -61 -145 -91 -231 -91c-17 0 -30 -14 -30 -31v-41c25 25 62 25 97 25h5c115 0 181 -55 181 -166c0 -99 -96 -166 -202 -166c-88 0 -169 52 -169 133c0 32 26 58 58 58
s58 -26 58 -58c0 -22 -36 -26 -36 -48c0 -36 47 -42 89 -42c52 0 73 63 73 123c0 53 -6 112 -52 112c-41 0 -84 -1 -107 -33c-6 -8 -14 -11 -22 -11c-14 0 -27 10 -27 27v209c0 17 11 30 26 30h4z" fill="currentColor"/>
</g>
</a>
<a style="color:inherit;" xlink:href="textedit://C:/Users/dtsch/Hobby/harmoniously/01-enge-ligging/Psalm-134-TS%204st.ly:33:5:6">
<g transform="translate(25.5720, 21.1316)">
<path transform="scale(0.0040, -0.0040)" d="M218 136c55 0 108 -28 108 -89c0 -71 -55 -121 -102 -149c-35 -21 -75 -34 -116 -34c-55 0 -108 28 -108 89c0 71 55 121 102 149c35 21 75 34 116 34z" fill="currentColor"/>
</g>
</a>
<a style="color:inherit;" xlink:href="textedit://C:/Users/dtsch/Hobby/harmoniously/01-enge-ligging/Psalm-134-TS%204st.ly:38:7:8">
<g transform="translate(25.5720, 31.5879)">
<path transform="scale(0.0040, -0.0040)" d="M218 136c55 0 108 -28 108 -89c0 -71 -55 -121 -102 -149c-35 -21 -75 -34 -116 -34c-55 0 -108 28 -108 89c0 71 55 121 102 149c35 21 75 34 116 34z" fill="currentColor"/>
</g>
</a>
<a style="color:inherit;" xlink:href="textedit://C:/Users/dtsch/Hobby/harmoniously/01-enge-ligging/Psalm-134-TS%204st.ly:38:9:10">
<g transform="translate(25.5720, 28.2613)">
<text font-family="serif" font-size="2.2001" text-anchor="start" fill="currentColor">
<tspan>G</tspan>
</text>
</g>
</a>
<a style="color:inherit;" xlink:href="textedit://C:/Users/dtsch/Hobby/harmoniously/01-enge-ligging/Psalm-134-TS%204st.ly:47:5:6">
<g transform="translate(25.5720, 35.0879)">
<path transform="scale(0.0040, -0.0040)" d="M218 136c55 0 108 -28 108 -89c0 -71 -55 -121 -102 -149c-35 -21 -75 -34 -116 -34c-55 0 -108 28 -108 89c0 71 55 121 102 149c35 21 75 34 116 34z" fill="currentColor"/>
</g>
</a>
<a style="color:inherit;" xlink:href="textedit://C:/Users/dtsch/Hobby/harmoniously/01-enge-ligging/Psalm-134-TS%204st.ly:27:9:10">
<g transform="translate(23.9024, 39.8897)">
<text font-family="serif" font-size="2.4696" text-anchor="start" fill="currentColor">
<tspan>looft</tspan>
</text>
</g>
</a>
<g transform="translate(53.1758, 18.6316)">
<rect x="-0.0650" y="2.7590" width="0.1300" height="2.2410" ry="0.0400" fill="currentColor"/>
</g>
<a style="color:inherit;" xlink:href="textedit://C:/Users/dtsch/Hobby/harmoniously/01-enge-ligging/Psalm-134-TS%204st.ly:33:19:20">
<g transform="translate(53.1108, 21.1316)">
<path transform="scale(0.0040, -0.0040)" d="M314 65c0 24 -21 41 -42 41c-4 0 -8 0 -12 -1c-31 -9 -78 -40 -115 -64s-84 -53 -104 -78c-7 -8 -10 -18 -10 -28c0 -24 21 -41 42 -41c4 0 8 0 12 1c31 9 77 40 114 64s84 53 104 78c7 8 11 18 11 28zM262 136c46 0 82 -21 82 -71c0 -19 -4 -39 -10 -57
c-12 -37 -32 -72 -64 -94c-53 -36 -113 -50 -187 -50c-46 0 -83 21 -83 71c0 19 5 39 11 57c12 37 31 72 63 94c53 36 114 50 188 50z" fill="currentColor"/>
</g>
</a>
<a style="color:inherit;" xlink:href="textedit://C:/Users/dtsch/Hobby/harmoniously/01-enge-ligging/Psalm-134-TS%204st.ly:38:41:42">
<g transform="translate(53.1108, 30.5879)">
<path transform="scale(0.0040, -0.0040)" d="M314 65c0 24 -21 41 -42 41c-4 0 -8 0 -12 -1c-31 -9 -78 -40 -115 -64s-84 -53 -104 -78c-7 -8 -10 -18 -10 -28c0 -24 21 -41 42 -41c4 0 8 0 12 1c31 9 77 40 114 64s84 53 104 78c7 8 11 18 11 28zM262 136c46 0 82 -21 82 -71c0 -19 -4 -39 -10 -57
c-12 -37 -32 -72 -64 -94c-53 -36 -113 -50 -187 -50c-46 0 -83 21 -83 71c0 19 5 39 11 57c12 37 31 72 63 94c53 36 114 50 188 50z" fill="currentColor"/>
</g>
</a>
<a style="color:inherit;" xlink:href="textedit://C:/Users/dtsch/Hobby/harmoniously/01-enge-ligging/Psalm-134-TS%204st.ly:38:43:44">
<g transform="translate(53.1108, 27.5947)">
<text font-family="serif" font-size="2.2001" text-anchor="start" fill="currentColor">
<tspan>G</tspan>
</text>
</g>
</a>
<a style="color:inherit;" xlink:href="textedit://C:/Users/dtsch/Hobby/harmoniously/01-enge-ligging/Psalm-134-TS%204st.ly:47:20:21">
<g transform="translate(53.1108, 35.0879)">
<path transform="scale(0.0040, -0.0040)" d="M314 65c0 24 -21 41 -42 41c-4 0 -8 0 -12 -1c-31 -9 -78 -40 -115 -64s-84 -53 -104 -78c-7 -8 -10 -18 -10 -28c0 -24 21 -41 42 -41c4 0 8 0 12 1c31 9 77 40 114 64s84 53 104 78c7 8 11 18 11 28zM262 136c46 0 82 -21 82 -71c0 -19 -4 -39 -10 -57
c-12 -37 -32 -72 -64 -94c-53 -36 -113 -50 -187 -50c-46 0 -83 21 -83 71c0 19 5 39 11 57c12 37 31 72 63 94c53 36 114 50 188 50z" fill="currentColor"/>
</g>
</a>
<a style="color:inherit;" xlink:href="textedit://C:/Users/dtsch/Hobby/harmoniously/01-enge-ligging/Psalm-134-TS%204st.ly:27:36:37">
<g transform="translate(50.2827, 39.8897)">
<text font-family="serif" font-size="2.4696" text-anchor="start" fill="currentColor">
<tspan>HEER,</tspan>
</text>
</g>
</a>
<g transform="translate(54.4231, 18.6316)">
<rect x="-0.0650" y="-2.5000" width="0.1300" height="3.2410" ry="0.0400" fill="currentColor"/>
</g>
<a style="color:inherit;" xlink:href="textedit://C:/Users/dtsch/Hobby/harmoniously/01-enge-ligging/Psalm-134-TS%204st.ly:20:84:85">
<g transform="translate(53.3726, 15.4001)">
<path transform="scale(0.0022, -0.0022)" d="M241 312c23 26 39 55 39 90c0 37 -41 55 -82 55c-40 0 -63 -30 -63 -58c0 -15 7 -30 22 -39zM296 280c56 -32 89 -80 89 -132c0 -75 -67 -148 -195 -148c-99 0 -190 60 -190 152c0 47 31 82 65 115c-32 27 -47 62 -47 97c0 69 62 136 180 136c80 0 163 -28 163 -98
c0 -49 -31 -87 -65 -122zM119 233c-22 -23 -38 -48 -38 -81c0 -60 49 -109 109 -109c49 0 77 37 77 71c0 19 -8 38 -27 49z" fill="currentColor"/>
</g>
</a>
<g transform="translate(54.4231, 33.0879)">
<rect x="-0.0650" y="-5.0000" width="0.1300" height="2.2410" ry="0.0400" fill="currentColor"/>
</g>
<g transform="translate(53.1758, 33.0879)">
<rect x="-0.0650" y="2.2590" width="0.1300" height="2.4077" ry="0.0400" fill="currentColor"/>
</g>
<a style="color:inherit;" xlink:href="textedit://C:/Users/dtsch/Hobby/harmoniously/01-enge-ligging/Psalm-134-TS%204st.ly:20:74:75">
<g transform="translate(49.6804, 20.1316)">
<path transform="scale(0.0040, -0.0040)" d="M218 136c55 0 108 -28 108 -89c0 -71 -55 -121 -102 -149c-35 -21 -75 -34 -116 -34c-55 0 -108 28 -108 89c0 71 55 121 102 149c35 21 75 34 116 34z" fill="currentColor"/>
</g>
</a>
<a style="color:inherit;" xlink:href="textedit://C:/Users/dtsch/Hobby/harmoniously/01-enge-ligging/Psalm-134-TS%204st.ly:20:79:80">
<g transform="translate(49.9398, 14.8614)">
<path transform="scale(0.0022, -0.0022)" d="M155 457c-34 0 -71 -8 -71 -38c0 -19 32 -23 32 -42c0 -28 -23 -51 -51 -51s-51 23 -51 51c0 72 66 123 141 123c93 0 174 -31 174 -113c0 -36 -10 -65 -42 -80c-17 -8 -26 -25 -26 -41s9 -32 26 -40c37 -17 59 -45 59 -85c0 -94 -83 -141 -186 -141
c-84 0 -160 54 -160 133c0 32 26 58 58 58s58 -26 58 -58c0 -22 -36 -26 -36 -48c0 -33 42 -42 80 -42c41 0 56 50 56 98v21c0 44 -2 77 -43 77h-65c-18 0 -27 14 -27 27s9 27 27 27h65c42 0 43 36 43 83v11c0 43 -20 70 -61 70z" fill="currentColor"/>
</g>
</a>
<g transform="translate(50.9196, 18.6316)">
<rect x="-0.0650" y="-2.0000" width="0.1300" height="3.3139" ry="0.0400" fill="currentColor"/>
</g>
<a style="color:inherit;" xlink:href="textedit://C:/Users/dtsch/Hobby/harmoniously/01-enge-ligging/Psalm-134-TS%204st.ly:20:82:83">
<g transform="translate(53.1108, 19.6316)">
<path transform="scale(0.0040, -0.0040)" d="M314 65c0 24 -21 41 -42 41c-4 0 -8 0 -12 -1c-31 -9 -78 -40 -115 -64s-84 -53 -104 -78c-7 -8 -10 -18 -10 -28c0 -24 21 -41 42 -41c4 0 8 0 12 1c31 9 77 40 114 64s84 53 104 78c7 8 11 18 11 28zM262 136c46 0 82 -21 82 -71c0 -19 -4 -39 -10 -57
c-12 -37 -32 -72 -64 -94c-53 -36 -113 -50 -187 -50c-46 0 -83 21 -83 71c0 19 5 39 11 57c12 37 31 72 63 94c53 36 114 50 188 50z" fill="currentColor"/>
</g>
</a>
<a style="color:inherit;" xlink:href="textedit://C:/Users/dtsch/Hobby/harmoniously/01-enge-ligging/Psalm-134-TS%204st.ly:38:46:47">
<g transform="translate(58.7405, 32.0879)">
<path transform="scale(0.0040, -0.0040)" d="M365 0h-355c-6 0 -10 4 -10 10v136c0 6 4 10 10 10h355c6 0 10 -4 10 -10v-136c0 -6 -4 -10 -10 -10z" fill="currentColor"/>
</g>
</a>
<a style="color:inherit;" xlink:href="textedit://C:/Users/dtsch/Hobby/harmoniously/01-enge-ligging/Psalm-134-TS%204st.ly:20:88:89">
<g transform="translate(58.7405, 17.6316)">
<path transform="scale(0.0040, -0.0040)" d="M365 0h-355c-6 0 -10 4 -10 10v136c0 6 4 10 10 10h355c6 0 10 -4 10 -10v-136c0 -6 -4 -10 -10 -10z" fill="currentColor"/>
</g>
</a>
<a style="color:inherit;" xlink:href="textedit://C:/Users/dtsch/Hobby/harmoniously/01-enge-ligging/Psalm-134-TS%204st.ly:33:21:22">
<g transform="translate(58.7405, 19.6316)">
<path transform="scale(0.0040, -0.0040)" d="M365 0h-355c-6 0 -10 4 -10 10v136c0 6 4 10 10 10h355c6 0 10 -4 10 -10v-136c0 -6 -4 -10 -10 -10z" fill="currentColor"/>
</g>
</a>
<a style="color:inherit;" xlink:href="textedit://C:/Users/dtsch/Hobby/harmoniously/01-enge-ligging/Psalm-134-TS%204st.ly:47:23:24">
<g transform="translate(58.7405, 34.0879)">
<path transform="scale(0.0040, -0.0040)" d="M365 0h-355c-6 0 -10 4 -10 10v136c0 6 4 10 10 10h355c6 0 10 -4 10 -10v-136c0 -6 -4 -10 -10 -10z" fill="currentColor"/>
</g>
</a>
<a style="color:inherit;" xlink:href="textedit://C:/Users/dtsch/Hobby/harmoniously/01-enge-ligging/Psalm-134-TS%204st.ly:47:15:16">
<g transform="translate(40.5476, 32.5879)">
<path transform="scale(0.0040, -0.0040)" d="M314 65c0 24 -21 41 -42 41c-4 0 -8 0 -12 -1c-31 -9 -78 -40 -115 -64s-84 -53 -104 -78c-7 -8 -10 -18 -10 -28c0 -24 21 -41 42 -41c4 0 8 0 12 1c31 9 77 40 114 64s84 53 104 78c7 8 11 18 11 28zM262 136c46 0 82 -21 82 -71c0 -19 -4 -39 -10 -57
c-12 -37 -32 -72 -64 -94c-53 -36 -113 -50 -187 -50c-46 0 -83 21 -83 71c0 19 5 39 11 57c12 37 31 72 63 94c53 36 114 50 188 50z" fill="currentColor"/>
</g>
</a>
<a style="color:inherit;" xlink:href="textedit://C:/Users/dtsch/Hobby/harmoniously/01-enge-ligging/Psalm-134-TS%204st.ly:27:27:28">
<g transform="translate(38.7267, 39.8897)">
<text font-family="serif" font-size="2.4696" text-anchor="start" fill="currentColor">
<tspan>heer-</tspan>
</text>
</g>
</a>
<g transform="translate(41.7868, 18.6316)">
<rect x="-0.0650" y="-1.5000" width="0.1300" height="3.3139" ry="0.0400" fill="currentColor"/>
</g>
<g transform="translate(40.6126, 18.6316)">
<rect x="-0.0650" y="3.7590" width="0.1300" height="2.2410" ry="0.0400" fill="currentColor"/>
</g>
<a style="color:inherit;" xlink:href="textedit://C:/Users/dtsch/Hobby/harmoniously/01-enge-ligging/Psalm-134-TS%204st.ly:38:33:34">
<g transform="translate(40.5476, 28.2946)">
<text font-family="serif" font-size="2.2001" text-anchor="start" fill="currentColor">
<tspan>E</tspan>
</text>
</g>
</a>
<g transform="translate(41.8599, 33.0879)">
<rect x="-0.0650" y="-4.3333" width="0.1300" height="2.5743" ry="0.0400" fill="currentColor"/>
</g>
<g transform="translate(47.0192, 33.0879)">
<rect x="-0.0650" y="0.2590" width="0.1300" height="3.0743" ry="0.0400" fill="currentColor"/>
</g>
<g transform="translate(40.6126, 33.0879)">
<rect x="-0.0650" y="-0.2410" width="0.1300" height="3.2410" ry="0.0400" fill="currentColor"/>
</g>
<g transform="translate(36.3922, 18.6316)">
<rect x="-0.0650" y="3.6861" width="0.1300" height="2.3139" ry="0.0400" fill="currentColor"/>
</g>
<g transform="translate(37.5664, 33.0879)">
<rect x="-0.0650" y="-3.3333" width="0.1300" height="3.1472" ry="0.0400" fill="currentColor"/>
</g>
<g transform="translate(36.3922, 33.0879)">
<rect x="-0.0650" y="1.1861" width="0.1300" height="2.8139" ry="0.0400" fill="currentColor"/>
</g>
<a style="color:inherit;" xlink:href="textedit://C:/Users/dtsch/Hobby/harmoniously/01-enge-ligging/Psalm-134-TS%204st.ly:20:66:67">
<g transform="translate(40.5476, 20.6316)">
<path transform="scale(0.0040, -0.0040)" d="M218 136c55 0 108 -28 108 -89c0 -71 -55 -121 -102 -149c-35 -21 -75 -34 -116 -34c-55 0 -108 28 -108 89c0 71 55 121 102 149c35 21 75 34 116 34z" fill="currentColor"/>
</g>
</a>
<a style="color:inherit;" xlink:href="textedit://C:/Users/dtsch/Hobby/harmoniously/01-enge-ligging/Psalm-134-TS%204st.ly:33:14:15">
<g transform="translate(40.5476, 22.1316)">
<path transform="scale(0.0040, -0.0040)" d="M314 65c0 24 -21 41 -42 41c-4 0 -8 0 -12 -1c-31 -9 -78 -40 -115 -64s-84 -53 -104 -78c-7 -8 -10 -18 -10 -28c0 -24 21 -41 42 -41c4 0 8 0 12 1c31 9 77 40 114 64s84 53 104 78c7 8 11 18 11 28zM262 136c46 0 82 -21 82 -71c0 -19 -4 -39 -10 -57
c-12 -37 -32 -72 -64 -94c-53 -36 -113 -50 -187 -50c-46 0 -83 21 -83 71c0 19 5 39 11 57c12 37 31 72 63 94c53 36 114 50 188 50z" fill="currentColor"/>
</g>
</a>
<a style="color:inherit;" xlink:href="textedit://C:/Users/dtsch/Hobby/harmoniously/01-enge-ligging/Psalm-134-TS%204st.ly:38:31:32">
<g transform="translate(40.5476, 31.5879)">
<path transform="scale(0.0040, -0.0040)" d="M314 65c0 24 -21 41 -42 41c-4 0 -8 0 -12 -1c-31 -9 -78 -40 -115 -64s-84 -53 -104 -78c-7 -8 -10 -18 -10 -28c0 -24 21 -41 42 -41c4 0 8 0 12 1c31 9 77 40 114 64s84 53 104 78c7 8 11 18 11 28zM262 136c46 0 82 -21 82 -71c0 -19 -4 -39 -10 -57
c-12 -37 -32 -72 -64 -94c-53 -36 -113 -50 -187 -50c-46 0 -83 21 -83 71c0 19 5 39 11 57c12 37 31 72 63 94c53 36 114 50 188 50z" fill="currentColor"/>
</g>
</a>
<g transform="translate(47.0192, 18.6316)">
<rect x="-0.0650" y="2.7590" width="0.1300" height="2.2410" ry="0.0400" fill="currentColor"/>
</g>
<a style="color:inherit;" xlink:href="textedit://C:/Users/dtsch/Hobby/harmoniously/01-enge-ligging/Psalm-134-TS%204st.ly:27:33:34">
<g transform="translate(46.4820, 39.8897)">
<text font-family="serif" font-size="2.4696" text-anchor="start" fill="currentColor">
<tspan>en</tspan>
</text>
</g>
</a>
<a style="color:inherit;" xlink:href="textedit://C:/Users/dtsch/Hobby/harmoniously/01-enge-ligging/Psalm-134-TS%204st.ly:47:18:19">
<g transform="translate(46.9542, 33.0879)">
<path transform="scale(0.0040, -0.0040)" d="M314 65c0 24 -21 41 -42 41c-4 0 -8 0 -12 -1c-31 -9 -78 -40 -115 -64s-84 -53 -104 -78c-7 -8 -10 -18 -10 -28c0 -24 21 -41 42 -41c4 0 8 0 12 1c31 9 77 40 114 64s84 53 104 78c7 8 11 18 11 28zM262 136c46 0 82 -21 82 -71c0 -19 -4 -39 -10 -57
c-12 -37 -32 -72 -64 -94c-53 -36 -113 -50 -187 -50c-46 0 -83 21 -83 71c0 19 5 39 11 57c12 37 31 72 63 94c53 36 114 50 188 50z" fill="currentColor"/>
</g>
</a>
<a style="color:inherit;" xlink:href="textedit://C:/Users/dtsch/Hobby/harmoniously/01-enge-ligging/Psalm-134-TS%204st.ly:38:38:39">
<g transform="translate(46.9542, 27.9613)">
<text font-family="serif" font-size="2.2001" text-anchor="start" fill="currentColor">
<tspan>D</tspan>
</text>
</g>
</a>
<a style="color:inherit;" xlink:href="textedit://C:/Users/dtsch/Hobby/harmoniously/01-enge-ligging/Psalm-134-TS%204st.ly:38:36:37">
<g transform="translate(46.9542, 31.0879)">
<path transform="scale(0.0040, -0.0040)" d="M314 65c0 24 -21 41 -42 41c-4 0 -8 0 -12 -1c-31 -9 -78 -40 -115 -64s-84 -53 -104 -78c-7 -8 -10 -18 -10 -28c0 -24 21 -41 42 -41c4 0 8 0 12 1c31 9 77 40 114 64s84 53 104 78c7 8 11 18 11 28zM262 136c46 0 82 -21 82 -71c0 -19 -4 -39 -10 -57
c-12 -37 -32 -72 -64 -94c-53 -36 -113 -50 -187 -50c-46 0 -83 21 -83 71c0 19 5 39 11 57c12 37 31 72 63 94c53 36 114 50 188 50z" fill="currentColor"/>
</g>
</a>
<a style="color:inherit;" xlink:href="textedit://C:/Users/dtsch/Hobby/harmoniously/01-enge-ligging/Psalm-134-TS%204st.ly:33:17:18">
<g transform="translate(46.9542, 21.1316)">
<path transform="scale(0.0040, -0.0040)" d="M314 65c0 24 -21 41 -42 41c-4 0 -8 0 -12 -1c-31 -9 -78 -40 -115 -64s-84 -53 -104 -78c-7 -8 -10 -18 -10 -28c0 -24 21 -41 42 -41c4 0 8 0 12 1c31 9 77 40 114 64s84 53 104 78c7 8 11 18 11 28zM262 136c46 0 82 -21 82 -71c0 -19 -4 -39 -10 -57
c-12 -37 -32 -72 -64 -94c-53 -36 -113 -50 -187 -50c-46 0 -83 21 -83 71c0 19 5 39 11 57c12 37 31 72 63 94c53 36 114 50 188 50z" fill="currentColor"/>
</g>
</a>
<g transform="translate(48.2665, 33.0879)">
<rect x="-0.0650" y="-4.6667" width="0.1300" height="2.4077" ry="0.0400" fill="currentColor"/>
</g>
<g transform="translate(45.5403, 18.6316)">
<rect x="-0.0650" y="-2.5000" width="0.1300" height="3.2410" ry="0.0400" fill="currentColor"/>
</g>
<a style="color:inherit;" xlink:href="textedit://C:/Users/dtsch/Hobby/harmoniously/01-enge-ligging/Psalm-134-TS%204st.ly:20:71:72">
<g transform="translate(44.4899, 15.0917)">
<path transform="scale(0.0022, -0.0022)" d="M241 312c23 26 39 55 39 90c0 37 -41 55 -82 55c-40 0 -63 -30 -63 -58c0 -15 7 -30 22 -39zM296 280c56 -32 89 -80 89 -132c0 -75 -67 -148 -195 -148c-99 0 -190 60 -190 152c0 47 31 82 65 115c-32 27 -47 62 -47 97c0 69 62 136 180 136c80 0 163 -28 163 -98
c0 -49 -31 -87 -65 -122zM119 233c-22 -23 -38 -48 -38 -81c0 -60 49 -109 109 -109c49 0 77 37 77 71c0 19 -8 38 -27 49z" fill="currentColor"/>
</g>
</a>
<a style="color:inherit;" xlink:href="textedit://C:/Users/dtsch/Hobby/harmoniously/01-enge-ligging/Psalm-134-TS%204st.ly:20:69:70">
<g transform="translate(44.2280, 19.6316)">
<path transform="scale(0.0040, -0.0040)" d="M314 65c0 24 -21 41 -42 41c-4 0 -8 0 -12 -1c-31 -9 -78 -40 -115 -64s-84 -53 -104 -78c-7 -8 -10 -18 -10 -28c0 -24 21 -41 42 -41c4 0 8 0 12 1c31 9 77 40 114 64s84 53 104 78c7 8 11 18 11 28zM262 136c46 0 82 -21 82 -71c0 -19 -4 -39 -10 -57
c-12 -37 -32 -72 -64 -94c-53 -36 -113 -50 -187 -50c-46 0 -83 21 -83 71c0 19 5 39 11 57c12 37 31 72 63 94c53 36 114 50 188 50z" fill="currentColor"/>
</g>
</a>
<g transform="translate(26.0502, 49.4227)">
<rect x="0.0000" y="-2.0000" width="0.1900" height="4.0000" ry="0.0000" fill="currentColor"/>
</g>
<g transform="translate(93.3099, 49.4227)">
<rect x="0.0000" y="-2.0000" width="0.1900" height="4.0000" ry="0.0000" fill="currentColor"/>
</g>
<g transform="translate(40.2003, 49.4227)">
<rect x="0.0000" y="-2.0000" width="0.1900" height="4.0000" ry="0.0000" fill="currentColor"/>
</g>
<g transform="translate(66.2009, 49.4227)">
<rect x="0.0000" y="-2.0000" width="0.1900" height="4.0000" ry="0.0000" fill="currentColor"/>
</g>
<g transform="translate(78.8984, 49.4227)">
<rect x="0.0000" y="-2.0000" width="0.1900" height="4.0000" ry="0.0000" fill="currentColor"/>
</g>
<g transform="translate(106.2249, 49.4227)">
<rect x="0.0000" y="-2.0000" width="0.1900" height="4.0000" ry="0.0000" fill="currentColor"/>
</g>
<g transform="translate(6.1344, 46.4227)">
<rect x="78.1453" y="-0.1000" width="1.9563" height="0.2000" ry="0.1000" fill="currentColor"/>
</g>
<g transform="translate(6.1344, 46.4227)">
<rect x="54.3297" y="-0.1000" width="2.0660" height="0.2000" ry="0.1000" fill="currentColor"/>
</g>
<g transform="translate(6.1344, 51.4227)">
<line stroke-linejoin="round" stroke-linecap="round" stroke-width="0.1000" stroke="currentColor" x1="0.0500" y1="0" x2="108.0705" y2="0"/>
</g>
<g transform="translate(6.1344, 50.4227)">
<line stroke-linejoin="round" stroke-linecap="round" stroke-width="0.1000" stroke="currentColor" x1="0.0500" y1="0" x2="108.0705" y2="0"/>
</g>
<g transform="translate(6.1344, 49.4227)">
<line stroke-linejoin="round" stroke-linecap="round" stroke-width="0.1000" stroke="currentColor" x1="0.0500" y1="0" x2="108.0705" y2="0"/>
</g>
<g transform="translate(6.1344, 48.4227)">
<line stroke-linejoin="round" stroke-linecap="round" stroke-width="0.1000" stroke="currentColor" x1="0.0500" y1="0" x2="108.0705" y2="0"/>
</g>
<g transform="translate(6.1344, 47.4227)">
<line stroke-linejoin="round" stroke-linecap="round" stroke-width="0.1000" stroke="currentColor" x1="0.0500" y1="0" x2="108.0705" y2="0"/>
</g>
<g transform="translate(53.1479, 49.4227)">
<rect x="0.0000" y="-2.0000" width="0.1900" height="4.0000" ry="0.0000" fill="currentColor"/>
</g>
<a style="color:inherit;" xlink:href="textedit://C:/Users/dtsch/Hobby/harmoniously/01-enge-ligging/Psalm-134-TS%204st.ly:41:10:11">
<g transform="translate(73.4889, 47.9227)">
<path transform="scale(0.0040, -0.0040)" d="M314 65c0 24 -21 41 -42 41c-4 0 -8 0 -12 -1c-31 -9 -78 -40 -115 -64s-84 -53 -104 -78c-7 -8 -10 -18 -10 -28c0 -24 21 -41 42 -41c4 0 8 0 12 1c31 9 77 40 114 64s84 53 104 78c7 8 11 18 11 28zM262 136c46 0 82 -21 82 -71c0 -19 -4 -39 -10 -57
c-12 -37 -32 -72 -64 -94c-53 -36 -113 -50 -187 -50c-46 0 -83 21 -83 71c0 19 5 39 11 57c12 37 31 72 63 94c53 36 114 50 188 50z" fill="currentColor"/>
</g>
</a>
<g transform="translate(74.8012, 49.4227)">
<rect x="-0.0650" y="-4.3333" width="0.1300" height="2.5743" ry="0.0400" fill="currentColor"/>
</g>
<g transform="translate(82.2833, 49.4227)">
<rect x="-0.0650" y="-4.6667" width="0.1300" height="2.4806" ry="0.0400" fill="currentColor"/>
</g>
<a style="color:inherit;" xlink:href="textedit://C:/Users/dtsch/Hobby/harmoniously/01-enge-ligging/Psalm-134-TS%204st.ly:41:12:13">
<g transform="translate(81.0441, 47.4227)">
<path transform="scale(0.0040, -0.0040)" d="M218 136c55 0 108 -28 108 -89c0 -71 -55 -121 -102 -149c-35 -21 -75 -34 -116 -34c-55 0 -108 28 -108 89c0 71 55 121 102 149c35 21 75 34 116 34z" fill="currentColor"/>
</g>
</a>
<a style="color:inherit;" xlink:href="textedit://C:/Users/dtsch/Hobby/harmoniously/01-enge-ligging/Psalm-134-TS%204st.ly:41:2:3">
<g transform="translate(60.8085, 45.9227)">
<path transform="scale(0.0040, -0.0040)" d="M314 65c0 24 -21 41 -42 41c-4 0 -8 0 -12 -1c-31 -9 -78 -40 -115 -64s-84 -53 -104 -78c-7 -8 -10 -18 -10 -28c0 -24 21 -41 42 -41c4 0 8 0 12 1c31 9 77 40 114 64s84 53 104 78c7 8 11 18 11 28zM262 136c46 0 82 -21 82 -71c0 -19 -4 -39 -10 -57
c-12 -37 -32 -72 -64 -94c-53 -36 -113 -50 -187 -50c-46 0 -83 21 -83 71c0 19 5 39 11 57c12 37 31 72 63 94c53 36 114 50 188 50z" fill="currentColor"/>
</g>
</a>
<a style="color:inherit;" xlink:href="textedit://C:/Users/dtsch/Hobby/harmoniously/01-enge-ligging/Psalm-134-TS%204st.ly:41:5:6">
<g transform="translate(61.0704, 44.8777)">
<path transform="scale(0.0022, -0.0022)" d="M241 312c23 26 39 55 39 90c0 37 -41 55 -82 55c-40 0 -63 -30 -63 -58c0 -15 7 -30 22 -39zM296 280c56 -32 89 -80 89 -132c0 -75 -67 -148 -195 -148c-99 0 -190 60 -190 152c0 47 31 82 65 115c-32 27 -47 62 -47 97c0 69 62 136 180 136c80 0 163 -28 163 -98
c0 -49 -31 -87 -65 -122zM119 233c-22 -23 -38 -48 -38 -81c0 -60 49 -109 109 -109c49 0 77 37 77 71c0 19 -8 38 -27 49z" fill="currentColor"/>
</g>
</a>
<g transform="translate(62.1208, 49.4227)">
<rect x="-0.0650" y="-6.0000" width="0.1300" height="2.2410" ry="0.0400" fill="currentColor"/>
</g>
<a style="color:inherit;" xlink:href="textedit://C:/Users/dtsch/Hobby/harmoniously/01-enge-ligging/Psalm-134-TS%204st.ly:41:8:9">
<g transform="translate(68.3465, 46.9227)">
<path transform="scale(0.0040, -0.0040)" d="M314 65c0 24 -21 41 -42 41c-4 0 -8 0 -12 -1c-31 -9 -78 -40 -115 -64s-84 -53 -104 -78c-7 -8 -10 -18 -10 -28c0 -24 21 -41 42 -41c4 0 8 0 12 1c31 9 77 40 114 64s84 53 104 78c7 8 11 18 11 28zM262 136c46 0 82 -21 82 -71c0 -19 -4 -39 -10 -57
c-12 -37 -32 -72 -64 -94c-53 -36 -113 -50 -187 -50c-46 0 -83 21 -83 71c0 19 5 39 11 57c12 37 31 72 63 94c53 36 114 50 188 50z" fill="currentColor"/>
</g>
</a>
<g transform="translate(69.6588, 49.4227)">
<rect x="-0.0650" y="-5.0000" width="0.1300" height="2.2410" ry="0.0400" fill="currentColor"/>
</g>
<a style="color:inherit;" xlink:href="textedit://C:/Users/dtsch/Hobby/harmoniously/01-enge-ligging/Psalm-134-TS%204st.ly:41:22:23">
<g transform="translate(100.8478, 47.9227)">
<path transform="scale(0.0040, -0.0040)" d="M213 112c-50 0 -69 -43 -69 -88c0 -77 57 -136 134 -136c50 0 69 43 69 88c0 77 -57 136 -134 136zM491 0c0 -43 -34 -75 -72 -96c-53 -29 -114 -40 -174 -40s-120 11 -173 40c-38 21 -72 53 -72 96s34 75 72 96c53 29 113 40 173 40s121 -11 174 -40
c38 -21 72 -53 72 -96z" fill="currentColor"/>
</g>
</a>
<g transform="translate(96.7678, 49.4227)">
<rect x="-0.0650" y="-4.6667" width="0.1300" height="2.4077" ry="0.0400" fill="currentColor"/>
</g>
<a style="color:inherit;" xlink:href="textedit://C:/Users/dtsch/Hobby/harmoniously/01-enge-ligging/Psalm-134-TS%204st.ly:41:24:25">
<g transform="translate(101.4021, 46.8727)">
<path transform="scale(0.0022, -0.0022)" d="M241 312c23 26 39 55 39 90c0 37 -41 55 -82 55c-40 0 -63 -30 -63 -58c0 -15 7 -30 22 -39zM296 280c56 -32 89 -80 89 -132c0 -75 -67 -148 -195 -148c-99 0 -190 60 -190 152c0 47 31 82 65 115c-32 27 -47 62 -47 97c0 69 62 136 180 136c80 0 163 -28 163 -98
c0 -49 -31 -87 -65 -122zM119 233c-22 -23 -38 -48 -38 -81c0 -60 49 -109 109 -109c49 0 77 37 77 71c0 19 -8 38 -27 49z" fill="currentColor"/>
</g>
</a>
<a style="color:inherit;" xlink:href="textedit://C:/Users/dtsch/Hobby/harmoniously/01-enge-ligging/Psalm-134-TS%204st.ly:41:15:16">
<g transform="translate(84.6058, 46.4227)">
<path transform="scale(0.0040, -0.0040)" d="M218 136c55 0 108 -28 108 -89c0 -71 -55 -121 -102 -149c-35 -21 -75 -34 -116 -34c-55 0 -108 28 -108 89c0 71 55 121 102 149c35 21 75 34 116 34z" fill="currentColor"/>
</g>
</a>
<g transform="translate(85.8450, 49.4227)">
<rect x="-0.0650" y="-5.5000" width="0.1300" height="2.3139" ry="0.0400" fill="currentColor"/>
</g>
<a style="color:inherit;" xlink:href="textedit://C:/Users/dtsch/Hobby/harmoniously/01-enge-ligging/Psalm-134-TS%204st.ly:41:17:18">
<g transform="translate(87.9175, 46.9227)">
<path transform="scale(0.0040, -0.0040)" d="M314 65c0 24 -21 41 -42 41c-4 0 -8 0 -12 -1c-31 -9 -78 -40 -115 -64s-84 -53 -104 -78c-7 -8 -10 -18 -10 -28c0 -24 21 -41 42 -41c4 0 8 0 12 1c31 9 77 40 114 64s84 53 104 78c7 8 11 18 11 28zM262 136c46 0 82 -21 82 -71c0 -19 -4 -39 -10 -57
c-12 -37 -32 -72 -64 -94c-53 -36 -113 -50 -187 -50c-46 0 -83 21 -83 71c0 19 5 39 11 57c12 37 31 72 63 94c53 36 114 50 188 50z" fill="currentColor"/>
</g>
</a>
<g transform="translate(89.2298, 49.4227)">
<rect x="-0.0650" y="-5.0000" width="0.1300" height="2.2410" ry="0.0400" fill="currentColor"/>
</g>
<a style="color:inherit;" xlink:href="textedit://C:/Users/dtsch/Hobby/harmoniously/01-enge-ligging/Psalm-134-TS%204st.ly:41:20:21">
<g transform="translate(95.4555, 47.4227)">
<path transform="scale(0.0040, -0.0040)" d="M314 65c0 24 -21 41 -42 41c-4 0 -8 0 -12 -1c-31 -9 -78 -40 -115 -64s-84 -53 -104 -78c-7 -8 -10 -18 -10 -28c0 -24 21 -41 42 -41c4 0 8 0 12 1c31 9 77 40 114 64s84 53 104 78c7 8 11 18 11 28zM262 136c46 0 82 -21 82 -71c0 -19 -4 -39 -10 -57
c-12 -37 -32 -72 -64 -94c-53 -36 -113 -50 -187 -50c-46 0 -83 21 -83 71c0 19 5 39 11 57c12 37 31 72 63 94c53 36 114 50 188 50z" fill="currentColor"/>
</g>
</a>
<a style="color:inherit;" xlink:href="textedit://C:/Users/dtsch/Hobby/harmoniously/01-enge-ligging/Psalm-134-TS%204st.ly:40:7:8">
<g transform="translate(19.4268, 47.4227)">
<path transform="scale(0.0040, -0.0040)" d="M218 136c55 0 108 -28 108 -89c0 -71 -55 -121 -102 -149c-35 -21 -75 -34 -116 -34c-55 0 -108 28 -108 89c0 71 55 121 102 149c35 21 75 34 116 34z" fill="currentColor"/>
</g>
</a>
<g transform="translate(20.6660, 49.4227)">
<rect x="-0.0650" y="-4.6667" width="0.1300" height="2.4806" ry="0.0400" fill="currentColor"/>
</g>
<a style="color:inherit;" xlink:href="textedit://C:/Users/dtsch/Hobby/harmoniously/01-enge-ligging/Psalm-134-TS%204st.ly:40:10:11">
<g transform="translate(22.7385, 46.9227)">
<path transform="scale(0.0040, -0.0040)" d="M218 136c55 0 108 -28 108 -89c0 -71 -55 -121 -102 -149c-35 -21 -75 -34 -116 -34c-55 0 -108 28 -108 89c0 71 55 121 102 149c35 21 75 34 116 34z" fill="currentColor"/>
</g>
</a>
<g transform="translate(23.9777, 49.4227)">
<rect x="-0.0650" y="-5.0000" width="0.1300" height="2.3139" ry="0.0400" fill="currentColor"/>
</g>
<a style="color:inherit;" xlink:href="textedit://C:/Users/dtsch/Hobby/harmoniously/01-enge-ligging/Psalm-134-TS%204st.ly:40:12:13">
<g transform="translate(28.1959, 47.4227)">
<path transform="scale(0.0040, -0.0040)" d="M218 136c55 0 108 -28 108 -89c0 -71 -55 -121 -102 -149c-35 -21 -75 -34 -116 -34c-55 0 -108 28 -108 89c0 71 55 121 102 149c35 21 75 34 116 34z" fill="currentColor"/>
</g>
</a>
<g transform="translate(29.4351, 49.4227)">
<rect x="-0.0650" y="-4.6667" width="0.1300" height="2.4806" ry="0.0400" fill="currentColor"/>
</g>
<g transform="translate(6.9344, 48.4227)">
<path transform="scale(0.0040, -0.0040)" d="M557 -125c0 28 23 51 51 51s51 -23 51 -51s-23 -51 -51 -51s-51 23 -51 51zM557 125c0 28 23 51 51 51s51 -23 51 -51s-23 -51 -51 -51s-51 23 -51 51zM232 263c172 0 293 -88 293 -251c0 -263 -263 -414 -516 -521c-3 -3 -6 -4 -9 -4c-7 0 -13 6 -13 13c0 3 1 6 4 9
c202 118 412 265 412 493c0 120 -63 235 -171 235c-74 0 -129 -54 -154 -126c11 5 22 8 34 8c55 0 100 -45 100 -100c0 -58 -44 -106 -100 -106c-60 0 -112 47 -112 106c0 133 102 244 232 244z" fill="currentColor"/>
</g>
<g transform="translate(10.4344, 48.4227)">
<path transform="scale(0.0040, -0.0040)" d="M0 119c0 8 5 15 13 18l46 17v158c0 10 8 19 18 19s19 -9 19 -19v-145l83 31v158c0 10 9 19 19 19s18 -9 18 -19v-145l32 12c2 1 5 1 7 1c11 0 20 -9 20 -20v-60c0 -8 -5 -16 -13 -19l-46 -16v-160l32 11c2 1 5 1 7 1c11 0 20 -9 20 -20v-60c0 -8 -5 -15 -13 -18l-46 -17
v-158c0 -10 -8 -19 -18 -19s-19 9 -19 19v145l-83 -31v-158c0 -10 -9 -19 -19 -19s-18 9 -18 19v145l-32 -12c-2 -1 -5 -1 -7 -1c-11 0 -20 9 -20 20v60c0 8 5 16 13 19l46 16v160l-32 -11c-2 -1 -5 -1 -7 -1c-11 0 -20 9 -20 20v60zM179 95l-83 -30v-160l83 30v160z" fill="currentColor"/>
</g>
<g transform="translate(5.2467, 46.3523)">
<text font-family="serif" font-size="1.7461" text-anchor="start" fill="currentColor">
<tspan>8</tspan>
</text>
</g>
<a style="color:inherit;" xlink:href="textedit://C:/Users/dtsch/Hobby/harmoniously/01-enge-ligging/Psalm-134-TS%204st.ly:40:2:3">
<g transform="translate(14.0344, 47.9227)">
<path transform="scale(0.0040, -0.0040)" d="M314 65c0 24 -21 41 -42 41c-4 0 -8 0 -12 -1c-31 -9 -78 -40 -115 -64s-84 -53 -104 -78c-7 -8 -10 -18 -10 -28c0 -24 21 -41 42 -41c4 0 8 0 12 1c31 9 77 40 114 64s84 53 104 78c7 8 11 18 11 28zM262 136c46 0 82 -21 82 -71c0 -19 -4 -39 -10 -57
c-12 -37 -32 -72 -64 -94c-53 -36 -113 -50 -187 -50c-46 0 -83 21 -83 71c0 19 5 39 11 57c12 37 31 72 63 94c53 36 114 50 188 50z" fill="currentColor"/>
</g>
</a>
<a style="color:inherit;" xlink:href="textedit://C:/Users/dtsch/Hobby/harmoniously/01-enge-ligging/Psalm-134-TS%204st.ly:40:4:5">
<g transform="translate(14.3304, 46.8727)">
<path transform="scale(0.0022, -0.0022)" d="M64 500c42 -7 84 -14 127 -14s85 7 127 14c2 0 5 1 7 1c17 0 28 -12 28 -22c0 -4 -1 -6 -4 -9c-61 -61 -145 -91 -231 -91c-17 0 -30 -14 -30 -31v-41c25 25 62 25 97 25h5c115 0 181 -55 181 -166c0 -99 -96 -166 -202 -166c-88 0 -169 52 -169 133c0 32 26 58 58 58
s58 -26 58 -58c0 -22 -36 -26 -36 -48c0 -36 47 -42 89 -42c52 0 73 63 73 123c0 53 -6 112 -52 112c-41 0 -84 -1 -107 -33c-6 -8 -14 -11 -22 -11c-14 0 -27 10 -27 27v209c0 17 11 30 26 30h4z" fill="currentColor"/>
</g>
</a>
<g transform="translate(15.3468, 49.4227)">
<rect x="-0.0650" y="-4.3333" width="0.1300" height="2.5743" ry="0.0400" fill="currentColor"/>
</g>
<a style="color:inherit;" xlink:href="textedit://C:/Users/dtsch/Hobby/harmoniously/01-enge-ligging/Psalm-134-TS%204st.ly:40:19:20">
<g transform="translate(42.3459, 48.4227)">
<path transform="scale(0.0040, -0.0040)" d="M314 65c0 24 -21 41 -42 41c-4 0 -8 0 -12 -1c-31 -9 -78 -40 -115 -64s-84 -53 -104 -78c-7 -8 -10 -18 -10 -28c0 -24 21 -41 42 -41c4 0 8 0 12 1c31 9 77 40 114 64s84 53 104 78c7 8 11 18 11 28zM262 136c46 0 82 -21 82 -71c0 -19 -4 -39 -10 -57
c-12 -37 -32 -72 -64 -94c-53 -36 -113 -50 -187 -50c-46 0 -83 21 -83 71c0 19 5 39 11 57c12 37 31 72 63 94c53 36 114 50 188 50z" fill="currentColor"/>
</g>
</a>
<g transform="translate(43.6583, 49.4227)">
<rect x="-0.0650" y="-4.0000" width="0.1300" height="2.7410" ry="0.0400" fill="currentColor"/>
</g>
<a style="color:inherit;" xlink:href="textedit://C:/Users/dtsch/Hobby/harmoniously/01-enge-ligging/Psalm-134-TS%204st.ly:40:23:24">
<g transform="translate(47.7383, 47.9227)">
<path transform="scale(0.0040, -0.0040)" d="M314 65c0 24 -21 41 -42 41c-4 0 -8 0 -12 -1c-31 -9 -78 -40 -115 -64s-84 -53 -104 -78c-7 -8 -10 -18 -10 -28c0 -24 21 -41 42 -41c4 0 8 0 12 1c31 9 77 40 114 64s84 53 104 78c7 8 11 18 11 28zM262 136c46 0 82 -21 82 -71c0 -19 -4 -39 -10 -57
c-12 -37 -32 -72 -64 -94c-53 -36 -113 -50 -187 -50c-46 0 -83 21 -83 71c0 19 5 39 11 57c12 37 31 72 63 94c53 36 114 50 188 50z" fill="currentColor"/>
</g>
</a>
<g transform="translate(49.0506, 49.4227)">
<rect x="-0.0650" y="-4.3333" width="0.1300" height="2.5743" ry="0.0400" fill="currentColor"/>
</g>
<a style="color:inherit;" xlink:href="textedit://C:/Users/dtsch/Hobby/harmoniously/01-enge-ligging/Psalm-134-TS%204st.ly:40:25:26">
<g transform="translate(55.2935, 47.4227)">
<path transform="scale(0.0040, -0.0040)" d="M365 0h-355c-6 0 -10 4 -10 10v136c0 6 4 10 10 10h355c6 0 10 -4 10 -10v-136c0 -6 -4 -10 -10 -10z" fill="currentColor"/>
</g>
</a>
<a style="color:inherit;" xlink:href="textedit://C:/Users/dtsch/Hobby/harmoniously/01-enge-ligging/Psalm-134-TS%204st.ly:40:16:17">
<g transform="translate(34.7193, 48.9227)">
<path transform="scale(0.0040, -0.0040)" d="M314 65c0 24 -21 41 -42 41c-4 0 -8 0 -12 -1c-31 -9 -78 -40 -115 -64s-84 -53 -104 -78c-7 -8 -10 -18 -10 -28c0 -24 21 -41 42 -41c4 0 8 0 12 1c31 9 77 40 114 64s84 53 104 78c7 8 11 18 11 28zM262 136c46 0 82 -21 82 -71c0 -19 -4 -39 -10 -57
c-12 -37 -32 -72 -64 -94c-53 -36 -113 -50 -187 -50c-46 0 -83 21 -83 71c0 19 5 39 11 57c12 37 31 72 63 94c53 36 114 50 188 50z" fill="currentColor"/>
</g>
</a>
<g transform="translate(36.0316, 49.4227)">
<rect x="-0.0650" y="-3.6667" width="0.1300" height="2.9077" ry="0.0400" fill="currentColor"/>
</g>
<g transform="translate(32.7468, 49.4227)">
<rect x="-0.0650" y="-4.3333" width="0.1300" height="2.6472" ry="0.0400" fill="currentColor"/>
</g>
<a style="color:inherit;" xlink:href="textedit://C:/Users/dtsch/Hobby/harmoniously/01-enge-ligging/Psalm-134-TS%204st.ly:40:14:15">
<g transform="translate(31.5076, 47.9227)">
<path transform="scale(0.0040, -0.0040)" d="M218 136c55 0 108 -28 108 -89c0 -71 -55 -121 -102 -149c-35 -21 -75 -34 -116 -34c-55 0 -108 28 -108 89c0 71 55 121 102 149c35 21 75 34 116 34z" fill="currentColor"/>
</g>
</a>
<g transform="translate(34.5701, 165.1202)">
<a xlink:href="https://lilypond.org/">
<rect x="0.0000" y="-0.4748" width="50.3614" height="2.0024" fill="none" stroke="none" stroke-width="0.0"/>
</a>
</g>
<g transform="translate(34.5701, 165.1202)">
<text font-family="serif" font-size="2.2001" text-anchor="start" fill="currentColor">
<tspan>Music engraving by LilyPond 2.24.4www.lilypond.org</tspan>
</text>
</g>
</svg>
